<svg xmlns="http://www.w3.org/2000/svg" xmlns:xlink="http://www.w3.org/1999/xlink" version="1.1" width="256" height="256" viewBox="0 0 256 256" xml:space="preserve">
<desc>Created with Fabric.js 1.7.22</desc>
<defs>
</defs>
<g transform="translate(128 128) scale(0.72 0.72)" style="">
	<g style="stroke: none; stroke-width: 0; stroke-dasharray: none; stroke-linecap: butt; stroke-linejoin: miter; stroke-miterlimit: 10; fill: none; fill-rule: nonzero; opacity: 1;" transform="translate(-175.05 -175.05000000000004) scale(3.89 3.89)" >
	<path d="M 45 90 C 20.187 90 0 69.813 0 45 C 0 20.187 20.187 0 45 0 c 24.813 0 45 20.187 45 45 C 90 69.813 69.813 90 45 90 z M 45 4 C 22.393 4 4 22.393 4 45 s 18.393 41 41 41 s 41 -18.393 41 -41 S 67.607 4 45 4 z" style="stroke: none; stroke-width: 1; stroke-dasharray: none; stroke-linecap: butt; stroke-linejoin: miter; stroke-miterlimit: 10; fill: rgb(0,0,0); fill-rule: nonzero; opacity: 1;" transform=" matrix(1 0 0 1 0 0) " stroke-linecap="round" />
	<path d="M 63.085 63.621 h -36.17 c -1.104 0 -2 -0.896 -2 -2 s 0.896 -2 2 -2 h 36.17 c 1.104 0 2 0.896 2 2 S 64.189 63.621 63.085 63.621 z" style="stroke: none; stroke-width: 1; stroke-dasharray: none; stroke-linecap: butt; stroke-linejoin: miter; stroke-miterlimit: 10; fill: rgb(0,0,0); fill-rule: nonzero; opacity: 1;" transform=" matrix(1 0 0 1 0 0) " stroke-linecap="round" />
	<path d="M 25.238 42.268 c -0.68 0 -1.343 -0.347 -1.718 -0.973 c -0.567 -0.948 -0.259 -2.176 0.688 -2.743 l 7.424 -4.444 l -7.424 -4.444 c -0.948 -0.567 -1.256 -1.795 -0.688 -2.743 c 0.566 -0.948 1.794 -1.258 2.743 -0.688 l 10.291 6.16 c 0.604 0.361 0.973 1.013 0.973 1.716 s -0.369 1.355 -0.973 1.716 l -10.291 6.16 C 25.941 42.176 25.587 42.268 25.238 42.268 z" style="stroke: none; stroke-width: 1; stroke-dasharray: none; stroke-linecap: butt; stroke-linejoin: miter; stroke-miterlimit: 10; fill: rgb(0,0,0); fill-rule: nonzero; opacity: 1;" transform=" matrix(1 0 0 1 0 0) " stroke-linecap="round" />
	<path d="M 64.762 42.268 c -0.35 0 -0.703 -0.092 -1.025 -0.285 l -10.29 -6.16 c -0.604 -0.361 -0.973 -1.013 -0.973 -1.716 s 0.369 -1.355 0.973 -1.716 l 10.29 -6.16 c 0.95 -0.567 2.176 -0.259 2.743 0.688 c 0.567 0.948 0.259 2.176 -0.688 2.743 l -7.424 4.444 l 7.424 4.444 c 0.947 0.567 1.256 1.795 0.688 2.743 C 66.105 41.92 65.442 42.268 64.762 42.268 z" style="stroke: none; stroke-width: 1; stroke-dasharray: none; stroke-linecap: butt; stroke-linejoin: miter; stroke-miterlimit: 10; fill: rgb(0,0,0); fill-rule: nonzero; opacity: 1;" transform=" matrix(1 0 0 1 0 0) " stroke-linecap="round" />
</g>
</g>
</svg>