<svg xmlns="http://www.w3.org/2000/svg" xmlns:xlink="http://www.w3.org/1999/xlink" version="1.1" width="256" height="256" viewBox="0 0 256 256" xml:space="preserve">
<desc>Created with Fabric.js 1.7.22</desc>
<defs>
</defs>
<g transform="translate(128 128) scale(0.72 0.72)" style="">
	<g style="stroke: none; stroke-width: 0; stroke-dasharray: none; stroke-linecap: butt; stroke-linejoin: miter; stroke-miterlimit: 10; fill: none; fill-rule: nonzero; opacity: 1;" transform="translate(-175.05 -175.05000000000004) scale(3.89 3.89)" >
	<path d="M 45 90 C 20.187 90 0 69.813 0 45 C 0 20.187 20.187 0 45 0 c 24.813 0 45 20.187 45 45 C 90 69.813 69.813 90 45 90 z M 45 4 C 22.393 4 4 22.393 4 45 s 18.393 41 41 41 s 41 -18.393 41 -41 S 67.607 4 45 4 z" style="stroke: none; stroke-width: 1; stroke-dasharray: none; stroke-linecap: butt; stroke-linejoin: miter; stroke-miterlimit: 10; fill: rgb(0,0,0); fill-rule: nonzero; opacity: 1;" transform=" matrix(1 0 0 1 0 0) " stroke-linecap="round" />
	<path d="M 45 78 c -12.958 0 -23.5 -10.542 -23.5 -23.5 S 32.042 31 45 31 s 23.5 10.542 23.5 23.5 S 57.958 78 45 78 z M 45 35 c -10.752 0 -19.5 8.748 -19.5 19.5 C 25.5 65.252 34.248 74 45 74 c 10.752 0 19.5 -8.748 19.5 -19.5 C 64.5 43.748 55.752 35 45 35 z" style="stroke: none; stroke-width: 1; stroke-dasharray: none; stroke-linecap: butt; stroke-linejoin: miter; stroke-miterlimit: 10; fill: rgb(0,0,0); fill-rule: nonzero; opacity: 1;" transform=" matrix(1 0 0 1 0 0) " stroke-linecap="round" />
	<path d="M 62.917 63.79 C 59.831 56.628 52.798 52 45 52 c -7.798 0 -14.831 4.628 -17.917 11.79 l -3.674 -1.582 C 27.128 53.577 35.603 48 45 48 c 9.396 0 17.872 5.577 21.591 14.208 L 62.917 63.79 z" style="stroke: none; stroke-width: 1; stroke-dasharray: none; stroke-linecap: butt; stroke-linejoin: miter; stroke-miterlimit: 10; fill: rgb(0,0,0); fill-rule: nonzero; opacity: 1;" transform=" matrix(1 0 0 1 0 0) " stroke-linecap="round" />
	<path d="M 22.315 30.336 c -0.405 0 -0.813 -0.123 -1.167 -0.377 c -0.896 -0.646 -1.1 -1.896 -0.455 -2.792 c 3.428 -4.762 8.39 -7.571 14.747 -8.351 c 1.105 -0.129 2.094 0.646 2.229 1.742 c 0.134 1.097 -0.646 2.094 -1.742 2.229 c -5.278 0.647 -9.199 2.845 -11.988 6.717 C 23.549 30.047 22.936 30.336 22.315 30.336 z" style="stroke: none; stroke-width: 1; stroke-dasharray: none; stroke-linecap: butt; stroke-linejoin: miter; stroke-miterlimit: 10; fill: rgb(0,0,0); fill-rule: nonzero; opacity: 1;" transform=" matrix(1 0 0 1 0 0) " stroke-linecap="round" />
	<path d="M 67.686 30.336 c -0.622 0 -1.234 -0.289 -1.625 -0.832 c -2.788 -3.873 -6.709 -6.07 -11.987 -6.717 c -1.097 -0.135 -1.876 -1.132 -1.742 -2.229 c 0.136 -1.097 1.153 -1.869 2.229 -1.742 c 6.357 0.78 11.319 3.589 14.747 8.351 c 0.646 0.896 0.442 2.146 -0.454 2.792 C 68.499 30.213 68.09 30.336 67.686 30.336 z" style="stroke: none; stroke-width: 1; stroke-dasharray: none; stroke-linecap: butt; stroke-linejoin: miter; stroke-miterlimit: 10; fill: rgb(0,0,0); fill-rule: nonzero; opacity: 1;" transform=" matrix(1 0 0 1 0 0) " stroke-linecap="round" />
</g>
</g>
</svg>