<?xml version="1.0" encoding="iso-8859-1"?>
<!-- Generator: Adobe Illustrator 18.0.0, SVG Export Plug-In . SVG Version: 6.00 Build 0)  -->
<!DOCTYPE svg PUBLIC "-//W3C//DTD SVG 1.1//EN" "http://www.w3.org/Graphics/SVG/1.1/DTD/svg11.dtd">
<svg version="1.1" xmlns="http://www.w3.org/2000/svg" xmlns:xlink="http://www.w3.org/1999/xlink" x="0px" y="0px" width="2800px"
	 height="2800px" viewBox="0 0 2800 2800" enable-background="new 0 0 2800 2800" xml:space="preserve">
<g id="BACKGROUND">
	<g>
		<rect fill="#FEEFD8" width="2800" height="2800"/>
	</g>
</g>
<g id="OBJECTS">
	<g>
		<g>
			<path fill="#FBB03B" d="M553.2,900.2c-173.6,0-282.6-106.1-282.6-106.1l32.9-29.2c-42.6-17.1-101.1-64.6-101.1-64.6
				c71.2-57.7,72.6-130.3,72.6-130.3c-67.7-109.7-110.4-325.1-47-359.2s220.9,122,220.9,122s34.9-15.5,104.3-15.5
				s104.3,15.5,104.3,15.5s157.6-156.1,220.9-122s20.7,249.5-47,359.2c0,0,1.4,72.6,72.6,130.3c0,0-58.5,47.5-101.1,64.6l32.9,29.2
				C835.8,794.1,726.8,900.2,553.2,900.2z"/>
		</g>
		<g opacity="0.1">
			<path d="M831.4,570.1c67.7-109.7,110.4-325.1,47-359.2c-63.4-34.1-220.9,122-220.9,122s-34.9-15.5-104.3-15.5
				s-104.3,15.5-104.3,15.5s-157.6-156.1-220.9-122c-63.4,34.1-20.7,249.5,47,359.2c0,0-1.4,72.6-72.6,130.3
				c0,0,58.5,47.5,101.1,64.6l-32.9,29.2c0,0,109,106.1,282.6,106.1s282.6-106.1,282.6-106.1l-32.9-29.2
				c42.6-17.1,101.1-64.6,101.1-64.6C832.8,642.7,831.4,570.1,831.4,570.1z M553.2,881.4c-81.3,0-264.1-51.8-251.4-255.1
				c12.3-197.2,133.1-284.7,251.4-284.7s239.1,87.4,251.4,284.7C817.3,829.6,634.5,881.4,553.2,881.4z"/>
		</g>
		<g>
			<path fill="#FFFFFF" d="M686.4,642.3c-44.4-9.9-93.7-32-93.7-103.5s-2.5-135.6-39.5-135.6c-37.1,0-39.5,64.1-39.5,135.6
				s-49.3,93.7-93.7,103.5s-81.3,41.9-60.8,96.1c20.5,54.2,100.5,120.8,194,120.8s173.5-66.5,194-120.8
				C767.7,684.2,730.8,652.2,686.4,642.3z"/>
		</g>
		<g>
			<path fill="#FFFFFF" d="M398.4,357.4c-46-58.2-123.7-120.9-146.3-104.5c-24,17.4-15.8,147.2,41.4,241.2
				C314,439.2,349.4,389.3,398.4,357.4z"/>
		</g>
		<g>
			<path fill="#FFFFFF" d="M854.3,252.9c-22.6-16.5-100.3,46.3-146.3,104.5c49,32,84.4,81.8,104.9,136.7
				C870.1,400,878.3,270.3,854.3,252.9z"/>
		</g>
		<g>
			<path fill="#5E3D1D" d="M553.2,714.2c21.4,0,53.8-32.8,53.8-52.7c0-16.7-22.6-22.9-53.8-22.9s-53.8,6.2-53.8,22.9
				C499.4,681.4,531.8,714.2,553.2,714.2z"/>
		</g>
		<g>
			<g>
				<path fill="#5E3D1D" d="M587.2,770.5c-14.4,0-27-7.6-34-19c-7.1,11.4-19.7,19-34,19c-22.1,0-40-18-40-40c0-3.3,2.7-6,6-6
					s6,2.7,6,6c0,15.5,12.6,28,28,28s28-12.6,28-28c0-3.3,2.7-6,6-6s6,2.7,6,6c0,15.5,12.6,28,28,28s28-12.6,28-28c0-3.3,2.7-6,6-6
					s6,2.7,6,6C627.3,752.5,609.3,770.5,587.2,770.5z"/>
			</g>
			<g>
				<path fill="#5E3D1D" d="M553.2,736.4c-3.3,0-6-2.7-6-6v-54c0-3.3,2.7-6,6-6s6,2.7,6,6v54C559.2,733.8,556.5,736.4,553.2,736.4z"
					/>
			</g>
		</g>
		<g>
			<circle fill="#5E3D1D" cx="434.3" cy="555.4" r="33.9"/>
		</g>
		<g>
			<circle fill="#5E3D1D" cx="672.1" cy="555.4" r="33.9"/>
		</g>
		<g opacity="0.1">
			<path d="M293.5,494.1c4-10.7,8.5-21.1,13.6-31.3c-41-70.9-80.5-177.1-55-209.9C228.1,270.3,236.2,400,293.5,494.1z"/>
		</g>
		<g opacity="0.1">
			<path d="M812.9,494.1c-4-10.7-8.5-21.1-13.6-31.3c41-70.9,80.5-177.1,55-209.9C878.3,270.3,870.1,400,812.9,494.1z"/>
		</g>
		<g>
			<path fill="#5E3D1D" d="M553.2,906.2c-90.9,0-164-29.2-209.3-53.8c-49.1-26.6-76.4-52.9-77.5-54c-1.2-1.2-1.9-2.8-1.8-4.4
				c0-1.7,0.8-3.2,2-4.3l25.9-23c-41.6-19.4-91.6-59.8-93.9-61.7c-1.4-1.1-2.2-2.9-2.2-4.7c0-1.8,0.8-3.5,2.2-4.7
				c35.5-28.8,52.8-61.4,61-83.7c7.3-20,9-35.5,9.3-40.4c-26.4-43.3-49.7-103.4-64.1-165.4c-14.9-64.4-17.9-122.2-8.2-158.5
				c5.6-20.8,15.2-35,28.5-42.1c6.9-3.7,15-5.6,24.1-5.6c68.2,0,181.4,106.7,201.1,125.8c11-4,45.2-14.5,102.9-14.5
				s91.9,10.5,102.9,14.5c19.7-19.1,133-125.8,201.1-125.8c9.1,0,17.2,1.9,24.1,5.6c13.3,7.2,22.9,21.4,28.5,42.1
				c9.7,36.3,6.8,94.1-8.2,158.5c-14.4,61.9-37.7,122.1-64.1,165.4c0.3,4.9,2,20.4,9.3,40.4c8.2,22.3,25.4,54.9,61,83.7
				c1.4,1.1,2.2,2.8,2.2,4.7c0,1.8-0.8,3.5-2.2,4.7c-2.3,1.8-52.3,42.3-93.9,61.7l25.9,23c1.2,1.1,2,2.7,2,4.3
				c0,1.7-0.6,3.3-1.8,4.4c-1.1,1.1-28.4,27.4-77.5,54C717.2,877,644.1,906.2,553.2,906.2z M279.5,794.2
				c9.8,8.5,34.2,28.3,70.5,47.9c44,23.8,114.9,52.1,203.2,52.1s159.2-28.3,203.2-52.1c36.3-19.6,60.7-39.4,70.5-47.9l-27.9-24.8
				c-1.6-1.4-2.3-3.5-1.9-5.5c0.4-2,1.8-3.8,3.7-4.5c33.7-13.5,78.2-46.9,93.8-59.1c-34-29.4-50.9-62-59.1-84.6
				c-9.5-26-9.9-44.7-10-45.5c0-1.2,0.3-2.3,0.9-3.3c26.1-42.4,49.3-101.9,63.6-163.4c14.5-62.5,17.5-118.2,8.3-152.7
				c-4.7-17.5-12.3-29.1-22.6-34.7c-5.1-2.8-11.3-4.2-18.4-4.2c-68.4,0-194.2,123.9-195.5,125.1c-1.8,1.7-4.4,2.2-6.7,1.2
				c-0.3-0.1-34.8-15-101.9-15s-101.6,14.8-101.9,15c-2.3,1-4.9,0.5-6.6-1.2C443.4,335.8,317.5,212,249.1,212
				c-7.1,0-13.3,1.4-18.4,4.2c-10.3,5.6-17.9,17.2-22.6,34.7c-9.2,34.5-6.2,90.1,8.3,152.7c14.3,61.5,37.4,121,63.6,163.4
				c0.6,1,0.9,2.1,0.9,3.3c0,0.8-0.5,19.5-10,45.5c-8.2,22.6-25.1,55.1-59.1,84.6c15.6,12.2,60.2,45.7,93.8,59.1
				c1.9,0.8,3.3,2.5,3.7,4.5c0.4,2-0.4,4.1-1.9,5.5L279.5,794.2z"/>
		</g>
		<g>
			<g>
				<g>
					<path fill="#5E3D1D" d="M289.3,512c-0.6,0-1.3-0.1-1.9-0.3c-3.1-1-4.9-4.4-3.8-7.6C306.4,435.2,349,379.4,403.8,347
						c2.9-1.7,6.5-0.7,8.2,2.1c1.7,2.9,0.7,6.5-2.1,8.2c-52.2,30.9-93,84.4-114.9,150.6C294.1,510.4,291.8,512,289.3,512z"/>
				</g>
			</g>
			<g>
				<g>
					<path fill="#5E3D1D" d="M817.1,512c-2.5,0-4.9-1.6-5.7-4.1c-21.9-66.2-62.7-119.6-114.9-150.6c-2.9-1.7-3.8-5.4-2.1-8.2
						c1.7-2.9,5.4-3.8,8.2-2.1c54.7,32.4,97.4,88.2,120.2,157.1c1,3.1-0.7,6.5-3.8,7.6C818.3,511.9,817.7,512,817.1,512z"/>
				</g>
			</g>
		</g>
	</g>
	<g>
		<g>
			<path fill="#FBB03B" d="M2246.8,1747.1c-173.6,0-282.6-106.1-282.6-106.1l32.9-29.2c-42.6-17.1-101.1-64.6-101.1-64.6
				c71.2-57.7,72.6-130.3,72.6-130.3c-67.7-109.7-110.4-325.1-47-359.2c63.4-34.1,220.9,122,220.9,122s34.9-15.5,104.3-15.5
				c69.4,0,104.3,15.5,104.3,15.5s157.6-156.1,220.9-122c63.4,34.1,20.7,249.5-47,359.2c0,0,1.4,72.6,72.6,130.3
				c0,0-58.5,47.5-101.1,64.6l32.9,29.2C2529.4,1641,2420.4,1747.1,2246.8,1747.1z"/>
		</g>
		<g opacity="0.1">
			<path d="M2525.1,1416.9c67.7-109.7,110.4-325.1,47-359.2c-63.4-34.1-220.9,122-220.9,122s-34.9-15.5-104.3-15.5
				c-69.4,0-104.3,15.5-104.3,15.5s-157.6-156.1-220.9-122c-63.4,34.1-20.7,249.5,47,359.2c0,0-1.4,72.6-72.6,130.3
				c0,0,58.5,47.5,101.1,64.6l-32.9,29.2c0,0,109,106.1,282.6,106.1c173.6,0,282.6-106.1,282.6-106.1l-32.9-29.2
				c42.6-17.1,101.1-64.6,101.1-64.6C2526.5,1489.5,2525.1,1416.9,2525.1,1416.9z M2246.8,1728.2c-81.3,0-264.1-51.8-251.4-255.1
				c12.3-197.2,133.1-284.7,251.4-284.7s239.1,87.4,251.4,284.7C2510.9,1676.4,2328.2,1728.2,2246.8,1728.2z"/>
		</g>
		<g>
			<path fill="#FFFFFF" d="M2380,1489.1c-44.4-9.9-93.7-32-93.7-103.5s-2.5-135.6-39.5-135.6s-39.5,64.1-39.5,135.6
				s-49.3,93.7-93.7,103.5c-44.4,9.9-81.3,41.9-60.8,96.1c20.5,54.2,100.5,120.8,194,120.8s173.5-66.5,194-120.8
				S2424.4,1499,2380,1489.1z"/>
		</g>
		<g>
			<path fill="#FFFFFF" d="M2092.1,1204.2c-46-58.2-123.7-120.9-146.3-104.5c-24,17.4-15.8,147.2,41.4,241.2
				C2007.6,1286,2043,1236.2,2092.1,1204.2z"/>
		</g>
		<g>
			<path fill="#FFFFFF" d="M2547.9,1099.7c-22.6-16.5-100.3,46.3-146.3,104.5c49,32,84.4,81.8,104.9,136.7
				C2563.8,1246.9,2571.9,1117.1,2547.9,1099.7z"/>
		</g>
		<g>
			<path fill="#5E3D1D" d="M2246.8,1561.1c21.4,0,53.8-32.8,53.8-52.7c0-16.7-22.6-22.9-53.8-22.9c-31.2,0-53.8,6.2-53.8,22.9
				C2193,1528.2,2225.5,1561.1,2246.8,1561.1z"/>
		</g>
		<g>
			<g>
				<path fill="#5E3D1D" d="M2280.9,1617.3c-14.4,0-27-7.6-34-19c-7.1,11.4-19.7,19-34,19c-22.1,0-40-18-40-40c0-3.3,2.7-6,6-6
					s6,2.7,6,6c0,15.5,12.6,28,28,28s28-12.6,28-28c0-3.3,2.7-6,6-6s6,2.7,6,6c0,15.5,12.6,28,28,28s28-12.6,28-28c0-3.3,2.7-6,6-6
					s6,2.7,6,6C2320.9,1599.3,2302.9,1617.3,2280.9,1617.3z"/>
			</g>
			<g>
				<path fill="#5E3D1D" d="M2246.8,1583.3c-3.3,0-6-2.7-6-6v-54c0-3.3,2.7-6,6-6s6,2.7,6,6v54
					C2252.8,1580.6,2250.1,1583.3,2246.8,1583.3z"/>
			</g>
		</g>
		<g>
			<path fill="#5E3D1D" d="M2161.8,1408.3c-3.3,0-6-2.7-6-6c0-15.4-12.5-27.9-27.9-27.9c-15.4,0-27.9,12.5-27.9,27.9
				c0,3.3-2.7,6-6,6s-6-2.7-6-6c0-22,17.9-39.9,39.9-39.9s39.9,17.9,39.9,39.9C2167.8,1405.6,2165.1,1408.3,2161.8,1408.3z"/>
		</g>
		<g>
			<path fill="#5E3D1D" d="M2399.6,1408.3c-3.3,0-6-2.7-6-6c0-15.4-12.5-27.9-27.9-27.9c-15.4,0-27.9,12.5-27.9,27.9
				c0,3.3-2.7,6-6,6s-6-2.7-6-6c0-22,17.9-39.9,39.9-39.9s39.9,17.9,39.9,39.9C2405.6,1405.6,2402.9,1408.3,2399.6,1408.3z"/>
		</g>
		<g opacity="0.1">
			<path d="M1987.1,1340.9c4-10.7,8.5-21.1,13.6-31.3c-41-70.9-80.5-177.1-55-209.9C1921.7,1117.1,1929.9,1246.9,1987.1,1340.9z"/>
		</g>
		<g opacity="0.1">
			<path d="M2506.5,1340.9c-4-10.7-8.5-21.1-13.6-31.3c41-70.9,80.5-177.1,55-209.9C2571.9,1117.1,2563.8,1246.9,2506.5,1340.9z"/>
		</g>
		<g>
			<path fill="#5E3D1D" d="M2246.8,1753.1c-90.9,0-164-29.2-209.3-53.8c-49.1-26.6-76.4-52.9-77.5-54c-1.2-1.2-1.9-2.8-1.8-4.4
				c0-1.7,0.8-3.2,2-4.3l25.9-23c-41.6-19.4-91.6-59.8-93.9-61.7c-1.4-1.1-2.2-2.9-2.2-4.7c0-1.8,0.8-3.5,2.2-4.7
				c62.4-50.5,69.5-113.1,70.3-124.1c-26.4-43.3-49.7-103.4-64.1-165.4c-14.9-64.4-17.9-122.2-8.2-158.5c5.6-20.8,15.2-35,28.5-42.1
				c6.9-3.7,15-5.6,24.1-5.6c68.2,0,181.4,106.7,201.1,125.8c11-4,45.2-14.5,102.9-14.5s91.9,10.5,102.9,14.5
				c19.7-19.1,133-125.8,201.1-125.8c9.1,0,17.2,1.9,24.1,5.6c13.3,7.2,22.9,21.4,28.5,42.1c9.7,36.3,6.8,94.1-8.2,158.5
				c-14.4,61.9-37.7,122.1-64.1,165.4c0.3,4.9,2,20.4,9.3,40.4c8.2,22.3,25.4,54.9,61,83.7c1.4,1.1,2.2,2.8,2.2,4.7
				c0,1.8-0.8,3.5-2.2,4.7c-2.3,1.8-52.3,42.3-93.9,61.7l25.9,23c1.2,1.1,2,2.7,2,4.3c0,1.7-0.6,3.3-1.8,4.4
				c-1.1,1.1-28.4,27.4-77.5,54C2410.8,1723.8,2337.8,1753.1,2246.8,1753.1z M1973.2,1641c9.8,8.5,34.2,28.3,70.5,47.9
				c44,23.8,114.9,52.1,203.2,52.1s159.2-28.3,203.2-52.1c36.3-19.6,60.7-39.4,70.5-47.9l-27.9-24.8c-1.6-1.4-2.3-3.5-1.9-5.5
				c0.4-2,1.8-3.8,3.7-4.5c33.7-13.5,78.2-46.9,93.8-59.1c-34-29.4-50.9-62-59.1-84.6c-9.5-26-9.9-44.7-10-45.5
				c0-1.2,0.3-2.3,0.9-3.3c26.1-42.4,49.3-101.9,63.6-163.4c14.5-62.5,17.5-118.2,8.3-152.7c-4.7-17.5-12.3-29.1-22.6-34.7
				c-5.1-2.8-11.3-4.2-18.4-4.2c-68.4,0-194.2,123.9-195.5,125.1c-1.8,1.7-4.4,2.2-6.7,1.2c-0.3-0.1-34.8-15-101.9-15
				s-101.6,14.8-101.9,15c-2.3,1-4.9,0.5-6.6-1.2c-1.3-1.3-127.1-125.1-195.5-125.1c-7.1,0-13.3,1.4-18.4,4.2
				c-10.3,5.6-17.9,17.2-22.6,34.7c-9.2,34.5-6.2,90.1,8.3,152.7c14.3,61.5,37.4,121,63.6,163.4c0.6,1,0.9,2.1,0.9,3.3
				c0,0.8-0.5,19.5-10,45.5c-8.2,22.6-25.1,55.1-59.1,84.6c15.6,12.2,60.2,45.7,93.8,59.1c1.9,0.8,3.3,2.5,3.7,4.5
				c0.4,2-0.4,4.1-1.9,5.5L1973.2,1641z"/>
		</g>
		<g>
			<g>
				<g>
					<path fill="#5E3D1D" d="M1982.9,1358.8c-0.6,0-1.3-0.1-1.9-0.3c-3.1-1-4.9-4.4-3.8-7.6c22.8-68.9,65.5-124.7,120.2-157.1
						c2.9-1.7,6.5-0.7,8.2,2.1c1.7,2.9,0.7,6.5-2.1,8.2c-52.2,30.9-93,84.4-114.9,150.6C1987.8,1357.2,1985.4,1358.8,1982.9,1358.8z
						"/>
				</g>
			</g>
			<g>
				<g>
					<path fill="#5E3D1D" d="M2510.7,1358.8c-2.5,0-4.9-1.6-5.7-4.1c-21.9-66.2-62.7-119.6-114.9-150.6c-2.9-1.7-3.8-5.4-2.1-8.2
						c1.7-2.9,5.4-3.8,8.2-2.1c54.7,32.4,97.4,88.2,120.2,157.1c1,3.1-0.7,6.5-3.8,7.6C2512,1358.7,2511.4,1358.8,2510.7,1358.8z"/>
				</g>
			</g>
		</g>
	</g>
	<g>
		<g>
			<path fill="#FBB03B" d="M553.2,1747.1c-173.6,0-282.6-106.1-282.6-106.1l32.9-29.2c-42.6-17.1-101.1-64.6-101.1-64.6
				c71.2-57.7,72.6-130.3,72.6-130.3c-67.7-109.7-110.4-325.1-47-359.2c63.4-34.1,220.9,122,220.9,122s34.9-15.5,104.3-15.5
				s104.3,15.5,104.3,15.5s157.6-156.1,220.9-122c63.4,34.1,20.7,249.5-47,359.2c0,0,1.4,72.6,72.6,130.3c0,0-58.5,47.5-101.1,64.6
				l32.9,29.2C835.8,1641,726.8,1747.1,553.2,1747.1z"/>
		</g>
		<g opacity="0.1">
			<path d="M831.4,1416.9c67.7-109.7,110.4-325.1,47-359.2c-63.4-34.1-220.9,122-220.9,122s-34.9-15.5-104.3-15.5
				s-104.3,15.5-104.3,15.5s-157.6-156.1-220.9-122c-63.4,34.1-20.7,249.5,47,359.2c0,0-1.4,72.6-72.6,130.3
				c0,0,58.5,47.5,101.1,64.6l-32.9,29.2c0,0,109,106.1,282.6,106.1S835.8,1641,835.8,1641l-32.9-29.2
				c42.6-17.1,101.1-64.6,101.1-64.6C832.8,1489.5,831.4,1416.9,831.4,1416.9z M553.2,1728.2c-81.3,0-264.1-51.8-251.4-255.1
				c12.3-197.2,133.1-284.7,251.4-284.7s239.1,87.4,251.4,284.7C817.3,1676.4,634.5,1728.2,553.2,1728.2z"/>
		</g>
		<g>
			<path fill="#FFFFFF" d="M686.4,1489.1c-44.4-9.9-93.7-32-93.7-103.5s-2.5-135.6-39.5-135.6c-37.1,0-39.5,64.1-39.5,135.6
				s-49.3,93.7-93.7,103.5c-44.4,9.9-81.3,41.9-60.8,96.1c20.5,54.2,100.5,120.8,194,120.8s173.5-66.5,194-120.8
				C767.7,1531,730.8,1499,686.4,1489.1z"/>
		</g>
		<g>
			<path fill="#FFFFFF" d="M398.4,1204.2c-46-58.2-123.7-120.9-146.3-104.5c-24,17.4-15.8,147.2,41.4,241.2
				C314,1286,349.4,1236.2,398.4,1204.2z"/>
		</g>
		<g>
			<path fill="#FFFFFF" d="M854.3,1099.7c-22.6-16.5-100.3,46.3-146.3,104.5c49,32,84.4,81.8,104.9,136.7
				C870.1,1246.9,878.3,1117.1,854.3,1099.7z"/>
		</g>
		<g>
			<path fill="#5E3D1D" d="M553.2,1561.1c21.4,0,53.8-32.8,53.8-52.7c0-16.7-22.6-22.9-53.8-22.9s-53.8,6.2-53.8,22.9
				C499.4,1528.2,531.8,1561.1,553.2,1561.1z"/>
		</g>
		<g>
			<g>
				<path fill="#5E3D1D" d="M587.2,1617.3c-14.4,0-27-7.6-34-19c-7.1,11.4-19.7,19-34,19c-22.1,0-40-18-40-40c0-3.3,2.7-6,6-6
					s6,2.7,6,6c0,15.5,12.6,28,28,28s28-12.6,28-28c0-3.3,2.7-6,6-6s6,2.7,6,6c0,15.5,12.6,28,28,28s28-12.6,28-28c0-3.3,2.7-6,6-6
					s6,2.7,6,6C627.3,1599.3,609.3,1617.3,587.2,1617.3z"/>
			</g>
			<g>
				<path fill="#5E3D1D" d="M553.2,1583.3c-3.3,0-6-2.7-6-6v-54c0-3.3,2.7-6,6-6s6,2.7,6,6v54
					C559.2,1580.6,556.5,1583.3,553.2,1583.3z"/>
			</g>
		</g>
		<g opacity="0.1">
			<path d="M293.5,1340.9c4-10.7,8.5-21.1,13.6-31.3c-41-70.9-80.5-177.1-55-209.9C228.1,1117.1,236.2,1246.9,293.5,1340.9z"/>
		</g>
		<g opacity="0.1">
			<path d="M812.9,1340.9c-4-10.7-8.5-21.1-13.6-31.3c41-70.9,80.5-177.1,55-209.9C878.3,1117.1,870.1,1246.9,812.9,1340.9z"/>
		</g>
		<g>
			<path fill="#5E3D1D" d="M553.2,1753.1c-90.9,0-164-29.2-209.3-53.8c-49.1-26.6-76.4-52.9-77.5-54c-1.2-1.2-1.9-2.8-1.8-4.4
				s0.8-3.2,2-4.3l25.9-23c-41.6-19.4-91.6-59.8-93.9-61.7c-1.4-1.1-2.2-2.9-2.2-4.7s0.8-3.5,2.2-4.7
				c62.4-50.5,69.5-113.1,70.3-124.1c-26.4-43.3-49.7-103.4-64.1-165.4c-14.9-64.4-17.9-122.2-8.2-158.5c5.6-20.8,15.2-35,28.5-42.1
				c6.9-3.7,15-5.6,24.1-5.6c68.2,0,181.4,106.7,201.1,125.8c11-4,45.2-14.5,102.9-14.5s91.9,10.5,102.9,14.5
				c19.7-19.1,133-125.8,201.1-125.8c9.1,0,17.2,1.9,24.1,5.6c13.3,7.2,22.9,21.4,28.5,42.1c9.7,36.3,6.8,94.1-8.2,158.5
				c-14.4,61.9-37.7,122.1-64.1,165.4c0.3,4.9,2,20.4,9.3,40.4c8.2,22.3,25.4,54.9,61,83.7c1.4,1.1,2.2,2.8,2.2,4.7
				s-0.8,3.5-2.2,4.7c-2.3,1.8-52.3,42.3-93.9,61.7l25.9,23c1.2,1.1,2,2.7,2,4.3s-0.6,3.3-1.8,4.4c-1.1,1.1-28.4,27.4-77.5,54
				C717.2,1723.8,644.1,1753.1,553.2,1753.1z M279.5,1641c9.8,8.5,34.2,28.3,70.5,47.9c44,23.8,114.9,52.1,203.2,52.1
				s159.2-28.3,203.2-52.1c36.3-19.6,60.7-39.4,70.5-47.9l-27.9-24.8c-1.6-1.4-2.3-3.5-1.9-5.5c0.4-2,1.8-3.8,3.7-4.5
				c33.7-13.5,78.2-46.9,93.8-59.1c-34-29.4-50.9-62-59.1-84.6c-9.5-26-9.9-44.7-10-45.5c0-1.2,0.3-2.3,0.9-3.3
				c26.1-42.4,49.3-101.9,63.6-163.4c14.5-62.5,17.5-118.2,8.3-152.7c-4.7-17.5-12.3-29.1-22.6-34.7c-5.1-2.8-11.3-4.2-18.4-4.2
				c-68.4,0-194.2,123.9-195.5,125.1c-1.8,1.7-4.4,2.2-6.7,1.2c-0.3-0.1-34.8-15-101.9-15s-101.6,14.8-101.9,15
				c-2.3,1-4.9,0.5-6.6-1.2c-1.3-1.3-127.1-125.1-195.5-125.1c-7.1,0-13.3,1.4-18.4,4.2c-10.3,5.6-17.9,17.2-22.6,34.7
				c-9.2,34.5-6.2,90.1,8.3,152.7c14.3,61.5,37.4,121,63.6,163.4c0.6,1,0.9,2.1,0.9,3.3c0,0.8-0.5,19.5-10,45.5
				c-8.2,22.6-25.1,55.1-59.1,84.6c15.6,12.2,60.2,45.7,93.8,59.1c1.9,0.8,3.3,2.5,3.7,4.5c0.4,2-0.4,4.1-1.9,5.5L279.5,1641z"/>
		</g>
		<g>
			<g>
				<g>
					<path fill="#5E3D1D" d="M289.3,1358.8c-0.6,0-1.3-0.1-1.9-0.3c-3.1-1-4.9-4.4-3.8-7.6c22.8-68.9,65.5-124.7,120.2-157.1
						c2.9-1.7,6.5-0.7,8.2,2.1c1.7,2.9,0.7,6.5-2.1,8.2c-52.2,30.9-93,84.4-114.9,150.6C294.1,1357.2,291.8,1358.8,289.3,1358.8z"/>
				</g>
			</g>
			<g>
				<g>
					<path fill="#5E3D1D" d="M817.1,1358.8c-2.5,0-4.9-1.6-5.7-4.1c-21.9-66.2-62.7-119.6-114.9-150.6c-2.9-1.7-3.8-5.4-2.1-8.2
						c1.7-2.9,5.4-3.8,8.2-2.1c54.7,32.4,97.4,88.2,120.2,157.1c1,3.1-0.7,6.5-3.8,7.6C818.3,1358.7,817.7,1358.8,817.1,1358.8z"/>
				</g>
			</g>
		</g>
		<g>
			<path fill="#EF3F6B" d="M455.2,1368.2c-8.4,0-15.8,3.7-20.9,9.6c-5.1-5.9-12.6-9.6-20.9-9.6c-15.3,0-27.7,12.4-27.7,27.7
				c0,36,48.6,56.5,48.6,56.5s48.6-20.5,48.6-56.5C482.9,1380.6,470.5,1368.2,455.2,1368.2z"/>
		</g>
		<g>
			<path fill="#EF3F6B" d="M693,1368.2c-8.4,0-15.8,3.7-20.9,9.6c-5.1-5.9-12.6-9.6-20.9-9.6c-15.3,0-27.7,12.4-27.7,27.7
				c0,36,48.6,56.5,48.6,56.5s48.6-20.5,48.6-56.5C720.7,1380.6,708.3,1368.2,693,1368.2z"/>
		</g>
	</g>
	<g>
		<g>
			<path fill="#FBB03B" d="M2246.8,2593.9c-173.6,0-282.6-106.1-282.6-106.1l32.9-29.2c-42.6-17.1-101.1-64.6-101.1-64.6
				c71.2-57.7,72.6-130.3,72.6-130.3c-67.7-109.7-110.4-325.1-47-359.2c63.4-34.1,220.9,122,220.9,122s34.9-15.5,104.3-15.5
				c69.4,0,104.3,15.5,104.3,15.5s157.6-156.1,220.9-122c63.4,34.1,20.7,249.5-47,359.2c0,0,1.4,72.6,72.6,130.3
				c0,0-58.5,47.5-101.1,64.6l32.9,29.2C2529.4,2487.8,2420.4,2593.9,2246.8,2593.9z"/>
		</g>
		<g opacity="0.1">
			<path d="M2525.1,2263.7c67.7-109.7,110.4-325.1,47-359.2c-63.4-34.1-220.9,122-220.9,122s-34.9-15.5-104.3-15.5
				s-104.3,15.5-104.3,15.5s-157.6-156.1-220.9-122c-63.4,34.1-20.7,249.5,47,359.2c0,0-1.4,72.6-72.6,130.3
				c0,0,58.5,47.5,101.1,64.6l-32.9,29.2c0,0,109,106.1,282.6,106.1c173.6,0,282.6-106.1,282.6-106.1l-32.9-29.2
				c42.6-17.1,101.1-64.6,101.1-64.6C2526.5,2336.3,2525.1,2263.7,2525.1,2263.7z M2246.8,2575.1c-81.3,0-264.1-51.8-251.4-255.1
				c12.3-197.2,133.1-284.7,251.4-284.7s239.1,87.4,251.4,284.7C2510.9,2523.3,2328.2,2575.1,2246.8,2575.1z"/>
		</g>
		<g>
			<path fill="#FFFFFF" d="M2380,2336c-44.4-9.9-93.7-32-93.7-103.5c0-71.5-2.5-135.6-39.5-135.6s-39.5,64.1-39.5,135.6
				c0,71.5-49.3,93.7-93.7,103.5c-44.4,9.9-81.3,41.9-60.8,96.1c20.5,54.2,100.5,120.8,194,120.8s173.5-66.5,194-120.8
				C2461.4,2377.9,2424.4,2345.8,2380,2336z"/>
		</g>
		<g>
			<path fill="#FFFFFF" d="M2092.1,2051c-46-58.2-123.7-120.9-146.3-104.5c-24,17.4-15.8,147.2,41.4,241.2
				C2007.6,2132.8,2043,2083,2092.1,2051z"/>
		</g>
		<g>
			<path fill="#FFFFFF" d="M2547.9,1946.5c-22.6-16.5-100.3,46.3-146.3,104.5c49,32,84.4,81.8,104.9,136.7
				C2563.8,2093.7,2571.9,1964,2547.9,1946.5z"/>
		</g>
		<g>
			<path fill="#5E3D1D" d="M2246.8,2407.9c21.4,0,53.8-32.8,53.8-52.7c0-16.7-22.6-22.9-53.8-22.9c-31.2,0-53.8,6.2-53.8,22.9
				C2193,2375.1,2225.5,2407.9,2246.8,2407.9z"/>
		</g>
		<g>
			<g>
				<path fill="#5E3D1D" d="M2246.8,2430.1c-3.3,0-6-2.7-6-6v-54c0-3.3,2.7-6,6-6s6,2.7,6,6v54
					C2252.8,2427.4,2250.1,2430.1,2246.8,2430.1z"/>
			</g>
		</g>
		<g>
			<g>
				<path fill="#5E3D1D" d="M2303.7,2430.1H2190c-3.3,0-6-2.7-6-6s2.7-6,6-6h113.7c3.3,0,6,2.7,6,6S2307,2430.1,2303.7,2430.1z"/>
			</g>
		</g>
		<g opacity="0.1">
			<path d="M1987.1,2187.7c4-10.7,8.5-21.1,13.6-31.3c-41-70.9-80.5-177.1-55-209.9C1921.7,1964,1929.9,2093.7,1987.1,2187.7z"/>
		</g>
		<g opacity="0.1">
			<path d="M2506.5,2187.7c-4-10.7-8.5-21.1-13.6-31.3c41-70.9,80.5-177.1,55-209.9C2571.9,1964,2563.8,2093.7,2506.5,2187.7z"/>
		</g>
		<g>
			<path fill="#5E3D1D" d="M2246.8,2599.9c-90.9,0-164-29.2-209.3-53.8c-49.1-26.6-76.4-52.9-77.5-54c-1.2-1.2-1.9-2.8-1.8-4.4
				c0-1.7,0.8-3.2,2-4.3l25.9-23c-41.6-19.4-91.6-59.8-93.9-61.7c-1.4-1.1-2.2-2.9-2.2-4.7c0-1.8,0.8-3.5,2.2-4.7
				c62.4-50.5,69.5-113.1,70.3-124.1c-26.4-43.3-49.7-103.4-64.1-165.4c-14.9-64.4-17.9-122.2-8.2-158.5c5.6-20.8,15.2-35,28.5-42.1
				c6.9-3.7,15-5.6,24.1-5.6c68.2,0,181.4,106.7,201.1,125.8c11-4,45.2-14.5,102.9-14.5s91.9,10.5,102.9,14.5
				c19.7-19.1,133-125.8,201.1-125.8c9.1,0,17.2,1.9,24.1,5.6c13.3,7.2,22.9,21.4,28.5,42.1c9.7,36.3,6.8,94.1-8.2,158.5
				c-14.4,61.9-37.7,122.1-64.1,165.4c0.3,4.9,2,20.4,9.3,40.4c8.2,22.3,25.4,54.9,61,83.7c1.4,1.1,2.2,2.8,2.2,4.7
				c0,1.8-0.8,3.5-2.2,4.7c-2.3,1.8-52.3,42.3-93.9,61.7l25.9,23c1.2,1.1,2,2.7,2,4.3c0,1.7-0.6,3.3-1.8,4.4
				c-1.1,1.1-28.4,27.4-77.5,54C2410.8,2570.6,2337.8,2599.9,2246.8,2599.9z M1973.2,2487.8c9.8,8.5,34.2,28.3,70.5,47.9
				c44,23.8,114.9,52.1,203.2,52.1s159.2-28.3,203.2-52.1c36.3-19.6,60.7-39.4,70.5-47.9l-27.9-24.8c-1.6-1.4-2.3-3.5-1.9-5.5
				c0.4-2,1.8-3.8,3.7-4.5c33.7-13.5,78.2-46.9,93.8-59.1c-34-29.4-50.9-62-59.1-84.6c-9.5-26-9.9-44.7-10-45.5
				c0-1.2,0.3-2.3,0.9-3.3c26.1-42.4,49.3-101.9,63.6-163.4c14.5-62.5,17.5-118.2,8.3-152.7c-4.7-17.5-12.3-29.1-22.6-34.7
				c-5.1-2.8-11.3-4.2-18.4-4.2c-68.4,0-194.2,123.9-195.5,125.1c-1.8,1.7-4.4,2.2-6.7,1.2c-0.3-0.1-34.8-15-101.9-15
				s-101.6,14.8-101.9,15c-2.3,1-4.9,0.5-6.6-1.2c-1.3-1.3-127.1-125.1-195.5-125.1c-7.1,0-13.3,1.4-18.4,4.2
				c-10.3,5.6-17.9,17.2-22.6,34.7c-9.2,34.5-6.2,90.1,8.3,152.7c14.3,61.5,37.4,121,63.6,163.4c0.6,1,0.9,2.1,0.9,3.3
				c0,0.8-0.5,19.5-10,45.5c-8.2,22.6-25.1,55.1-59.1,84.6c15.6,12.2,60.2,45.7,93.8,59.1c1.9,0.8,3.3,2.5,3.7,4.5
				c0.4,2-0.4,4.1-1.9,5.5L1973.2,2487.8z"/>
		</g>
		<g>
			<g>
				<g>
					<path fill="#5E3D1D" d="M1982.9,2205.6c-0.6,0-1.3-0.1-1.9-0.3c-3.1-1-4.9-4.4-3.8-7.6c22.8-68.9,65.5-124.7,120.2-157.1
						c2.9-1.7,6.5-0.7,8.2,2.1c1.7,2.9,0.7,6.5-2.1,8.2c-52.2,30.9-93,84.4-114.9,150.6C1987.8,2204,1985.4,2205.6,1982.9,2205.6z"
						/>
				</g>
			</g>
			<g>
				<g>
					<path fill="#5E3D1D" d="M2510.7,2205.6c-2.5,0-4.9-1.6-5.7-4.1c-21.9-66.2-62.7-119.6-114.9-150.6c-2.9-1.7-3.8-5.4-2.1-8.2
						s5.4-3.8,8.2-2.1c54.7,32.4,97.4,88.2,120.2,157.1c1,3.1-0.7,6.5-3.8,7.6C2512,2205.5,2511.4,2205.6,2510.7,2205.6z"/>
				</g>
			</g>
		</g>
		<g>
			<path fill="#5E3D1D" d="M2161.6,2255.1H2094c-3.3,0-6-2.7-6-6s2.7-6,6-6h67.6c3.3,0,6,2.7,6,6S2165,2255.1,2161.6,2255.1z"/>
		</g>
		<g>
			<path fill="#5E3D1D" d="M2399.6,2255.1h-67.6c-3.3,0-6-2.7-6-6s2.7-6,6-6h67.6c3.3,0,6,2.7,6,6S2402.9,2255.1,2399.6,2255.1z"/>
		</g>
	</g>
	<g>
		<g>
			<path fill="#FBB03B" d="M1400,900.2c-173.6,0-282.6-106.1-282.6-106.1l32.9-29.2c-42.6-17.1-101.1-64.6-101.1-64.6
				c71.2-57.7,72.6-130.3,72.6-130.3c-67.7-109.7-110.4-325.1-47-359.2s220.9,122,220.9,122s34.9-15.5,104.3-15.5
				s104.3,15.5,104.3,15.5s157.6-156.1,220.9-122s20.7,249.5-47,359.2c0,0,1.4,72.6,72.6,130.3c0,0-58.5,47.5-101.1,64.6l32.9,29.2
				C1682.6,794.1,1573.6,900.2,1400,900.2z"/>
		</g>
		<g opacity="0.1">
			<path d="M1678.2,570.1c67.7-109.7,110.4-325.1,47-359.2c-63.4-34.1-220.9,122-220.9,122s-34.9-15.5-104.3-15.5
				s-104.3,15.5-104.3,15.5s-157.6-156.1-220.9-122c-63.4,34.1-20.7,249.5,47,359.2c0,0-1.4,72.6-72.6,130.3
				c0,0,58.5,47.5,101.1,64.6l-32.9,29.2c0,0,109,106.1,282.6,106.1s282.6-106.1,282.6-106.1l-32.9-29.2
				c42.6-17.1,101.1-64.6,101.1-64.6C1679.6,642.7,1678.2,570.1,1678.2,570.1z M1400,881.4c-81.3,0-264.1-51.8-251.4-255.1
				c12.3-197.2,133.1-284.7,251.4-284.7s239.1,87.4,251.4,284.7C1664.1,829.6,1481.3,881.4,1400,881.4z"/>
		</g>
		<g>
			<path fill="#FFFFFF" d="M1533.2,642.3c-44.4-9.9-93.7-32-93.7-103.5s-2.5-135.6-39.5-135.6s-39.5,64.1-39.5,135.6
				s-49.3,93.7-93.7,103.5c-44.4,9.9-81.3,41.9-60.8,96.1c20.5,54.2,100.5,120.8,194,120.8s173.5-66.5,194-120.8
				C1614.5,684.2,1577.6,652.2,1533.2,642.3z"/>
		</g>
		<g>
			<path fill="#FFFFFF" d="M1245.2,357.4c-46-58.2-123.7-120.9-146.3-104.5c-24,17.4-15.8,147.2,41.4,241.2
				C1160.8,439.2,1196.2,389.3,1245.2,357.4z"/>
		</g>
		<g>
			<path fill="#FFFFFF" d="M1701.1,252.9c-22.6-16.5-100.3,46.3-146.3,104.5c49,32,84.4,81.8,104.9,136.7
				C1716.9,400,1725.1,270.3,1701.1,252.9z"/>
		</g>
		<g>
			<g>
				<circle fill="#5E3D1D" cx="1281.1" cy="555.4" r="33.9"/>
			</g>
			<g>
				<circle fill="#5E3D1D" cx="1518.9" cy="555.4" r="33.9"/>
			</g>
		</g>
		<g opacity="0.1">
			<path d="M1140.3,494.1c4-10.7,8.5-21.1,13.6-31.3c-41-70.9-80.5-177.1-55-209.9C1074.9,270.3,1083.1,400,1140.3,494.1z"/>
		</g>
		<g opacity="0.1">
			<path d="M1659.7,494.1c-4-10.7-8.5-21.1-13.6-31.3c41-70.9,80.5-177.1,55-209.9C1725.1,270.3,1716.9,400,1659.7,494.1z"/>
		</g>
		<g>
			<path fill="#5E3D1D" d="M1400,906.2c-90.9,0-164-29.2-209.3-53.8c-49.1-26.6-76.4-52.9-77.5-54c-1.2-1.2-1.9-2.8-1.8-4.4
				c0-1.7,0.8-3.2,2-4.3l25.9-23c-41.6-19.4-91.6-59.8-93.9-61.7c-1.4-1.1-2.2-2.9-2.2-4.7c0-1.8,0.8-3.5,2.2-4.7
				c35.5-28.8,52.8-61.4,61-83.7c7.3-20,9-35.5,9.3-40.4c-26.4-43.3-49.7-103.4-64.1-165.4c-14.9-64.4-17.9-122.2-8.2-158.5
				c5.6-20.8,15.2-35,28.5-42.1c6.9-3.7,15-5.6,24.1-5.6c68.2,0,181.4,106.7,201.1,125.8c11-4,45.2-14.5,102.9-14.5
				s91.9,10.5,102.9,14.5c19.7-19.1,133-125.8,201.1-125.8c9.1,0,17.2,1.9,24.1,5.6c13.3,7.2,22.9,21.4,28.5,42.1
				c9.7,36.3,6.8,94.1-8.2,158.5c-14.4,61.9-37.7,122.1-64.1,165.4c0.3,4.9,2,20.4,9.3,40.4c8.2,22.3,25.4,54.9,61,83.7
				c1.4,1.1,2.2,2.8,2.2,4.7c0,1.8-0.8,3.5-2.2,4.7c-2.3,1.8-52.3,42.3-93.9,61.7l25.9,23c1.2,1.1,2,2.7,2,4.3
				c0,1.7-0.6,3.3-1.8,4.4c-1.1,1.1-28.4,27.4-77.5,54C1564,877,1490.9,906.2,1400,906.2z M1126.4,794.2
				c9.8,8.5,34.2,28.3,70.5,47.9c44,23.8,114.9,52.1,203.2,52.1c88.2,0,159.2-28.3,203.2-52.1c36.3-19.6,60.7-39.4,70.5-47.9
				l-27.9-24.8c-1.6-1.4-2.3-3.5-1.9-5.5c0.4-2,1.8-3.8,3.7-4.5c33.7-13.5,78.2-46.9,93.8-59.1c-34-29.4-50.9-62-59.1-84.6
				c-9.5-26-9.9-44.7-10-45.5c0-1.2,0.3-2.3,0.9-3.3c26.1-42.4,49.3-101.9,63.6-163.4c14.5-62.5,17.5-118.2,8.3-152.7
				c-4.7-17.5-12.3-29.1-22.6-34.7c-5.1-2.8-11.3-4.2-18.4-4.2c-68.4,0-194.2,123.9-195.5,125.1c-1.8,1.7-4.4,2.2-6.7,1.2
				c-0.3-0.1-34.8-15-101.9-15s-101.6,14.8-101.9,15c-2.3,1-4.9,0.5-6.6-1.2c-1.3-1.3-127.1-125.1-195.5-125.1
				c-7.1,0-13.3,1.4-18.4,4.2c-10.3,5.6-17.9,17.2-22.6,34.7c-9.2,34.5-6.2,90.1,8.3,152.7c14.3,61.5,37.4,121,63.6,163.4
				c0.6,1,0.9,2.1,0.9,3.3c0,0.8-0.5,19.5-10,45.5c-8.2,22.6-25.1,55.1-59.1,84.6c15.6,12.2,60.2,45.7,93.8,59.1
				c1.9,0.8,3.3,2.5,3.7,4.5c0.4,2-0.4,4.1-1.9,5.5L1126.4,794.2z"/>
		</g>
		<g>
			<g>
				<g>
					<path fill="#5E3D1D" d="M1136.1,512c-0.6,0-1.3-0.1-1.9-0.3c-3.1-1-4.9-4.4-3.8-7.6c22.8-68.9,65.5-124.7,120.2-157.1
						c2.9-1.7,6.5-0.7,8.2,2.1c1.7,2.9,0.7,6.5-2.1,8.2c-52.2,30.9-93,84.4-114.9,150.6C1141,510.4,1138.6,512,1136.1,512z"/>
				</g>
			</g>
			<g>
				<g>
					<path fill="#5E3D1D" d="M1663.9,512c-2.5,0-4.9-1.6-5.7-4.1c-21.9-66.2-62.7-119.6-114.9-150.6c-2.9-1.7-3.8-5.4-2.1-8.2
						c1.7-2.9,5.4-3.8,8.2-2.1c54.7,32.4,97.4,88.2,120.2,157.1c1,3.1-0.7,6.5-3.8,7.6C1665.2,511.9,1664.5,512,1663.9,512z"/>
				</g>
			</g>
		</g>
		<g>
			<path fill="#5E3D1D" d="M1400,714.2c21.4,0,53.8-32.8,53.8-52.7c0-16.7-22.6-22.9-53.8-22.9c-31.2,0-53.8,6.2-53.8,22.9
				C1346.2,681.4,1378.6,714.2,1400,714.2z"/>
		</g>
		<g>
			<path fill="#5E3D1D" d="M1400,736.4c-3.3,0-6-2.7-6-6v-54c0-3.3,2.7-6,6-6s6,2.7,6,6v54C1406,733.8,1403.3,736.4,1400,736.4z"/>
		</g>
		<g>
			<circle fill="#5E3D1D" cx="1400" cy="777.6" r="47.1"/>
			<path fill="#5E3D1D" d="M1400,830.7c-29.3,0-53.1-23.8-53.1-53.1c0-29.3,23.8-53.1,53.1-53.1c29.3,0,53.1,23.8,53.1,53.1
				C1453.1,806.9,1429.3,830.7,1400,830.7z M1400,736.4c-22.7,0-41.1,18.5-41.1,41.1c0,22.7,18.5,41.1,41.1,41.1
				s41.1-18.5,41.1-41.1C1441.1,754.9,1422.7,736.4,1400,736.4z"/>
		</g>
		<g>
			<path fill="#EF3F6B" d="M1400,777.6c-17.4,0-32.7,9.5-40.8,23.6c8.2,14.1,23.4,23.6,40.8,23.6s32.7-9.5,40.8-23.6
				C1432.7,787.1,1417.4,777.6,1400,777.6z"/>
			<path fill="#5E3D1D" d="M1400,830.7c-18.9,0-36.5-10.2-46-26.6c-1.1-1.9-1.1-4.2,0-6c9.5-16.4,27.1-26.6,46-26.6
				c18.9,0,36.5,10.2,46,26.6c1.1,1.9,1.1,4.2,0,6C1436.5,820.5,1418.9,830.7,1400,830.7z M1366.3,801.2
				c7.7,10.9,20.3,17.6,33.7,17.6s26.1-6.7,33.7-17.6c-7.7-10.9-20.3-17.6-33.7-17.6S1373.9,790.2,1366.3,801.2z"/>
		</g>
	</g>
	<g>
		<g>
			<path fill="#FBB03B" d="M1400,2596.2c-173.6,0-282.6-106.1-282.6-106.1l32.9-29.2c-42.6-17.1-101.1-64.6-101.1-64.6
				c71.2-57.7,72.6-130.3,72.6-130.3c-67.7-109.7-110.4-325.1-47-359.2c63.4-34.1,220.9,122,220.9,122s34.9-15.5,104.3-15.5
				s104.3,15.5,104.3,15.5s157.6-156.1,220.9-122c63.4,34.1,20.7,249.5-47,359.2c0,0,1.4,72.6,72.6,130.3c0,0-58.5,47.5-101.1,64.6
				l32.9,29.2C1682.6,2490.1,1573.6,2596.2,1400,2596.2z"/>
		</g>
		<g opacity="0.1">
			<path d="M1678.2,2266c67.7-109.7,110.4-325.1,47-359.2c-63.4-34.1-220.9,122-220.9,122s-34.9-15.5-104.3-15.5
				s-104.3,15.5-104.3,15.5s-157.6-156.1-220.9-122c-63.4,34.1-20.7,249.5,47,359.2c0,0-1.4,72.6-72.6,130.3
				c0,0,58.5,47.5,101.1,64.6l-32.9,29.2c0,0,109,106.1,282.6,106.1s282.6-106.1,282.6-106.1l-32.9-29.2
				c42.6-17.1,101.1-64.6,101.1-64.6C1679.6,2338.6,1678.2,2266,1678.2,2266z M1400,2577.4c-81.3,0-264.1-51.8-251.4-255.1
				c12.3-197.2,133.1-284.7,251.4-284.7s239.1,87.4,251.4,284.7C1664.1,2525.6,1481.3,2577.4,1400,2577.4z"/>
		</g>
		<g>
			<path fill="#FFFFFF" d="M1533.2,2338.3c-44.4-9.9-93.7-32-93.7-103.5c0-71.5-2.5-135.6-39.5-135.6s-39.5,64.1-39.5,135.6
				c0,71.5-49.3,93.7-93.7,103.5c-44.4,9.9-81.3,41.9-60.8,96.1c20.5,54.2,100.5,120.8,194,120.8s173.5-66.5,194-120.8
				C1614.5,2380.2,1577.6,2348.2,1533.2,2338.3z"/>
		</g>
		<g>
			<path fill="#FFFFFF" d="M1245.2,2053.3c-46-58.2-123.7-120.9-146.3-104.5c-24,17.4-15.8,147.2,41.4,241.2
				C1160.8,2135.2,1196.2,2085.3,1245.2,2053.3z"/>
		</g>
		<g>
			<path fill="#FFFFFF" d="M1701.1,1948.9c-22.6-16.5-100.3,46.3-146.3,104.5c49,32,84.4,81.8,104.9,136.7
				C1716.9,2096,1725.1,1966.3,1701.1,1948.9z"/>
		</g>
		<g opacity="0.1">
			<path d="M1140.3,2190c4-10.7,8.5-21.1,13.6-31.3c-41-70.9-80.5-177.1-55-209.9C1074.9,1966.3,1083.1,2096,1140.3,2190z"/>
		</g>
		<g opacity="0.1">
			<path d="M1659.7,2190c-4-10.7-8.5-21.1-13.6-31.3c41-70.9,80.5-177.1,55-209.9C1725.1,1966.3,1716.9,2096,1659.7,2190z"/>
		</g>
		<g>
			<path fill="#5E3D1D" d="M1400,2602.2c-90.9,0-164-29.2-209.3-53.8c-49.1-26.6-76.4-52.9-77.5-54c-1.2-1.2-1.9-2.8-1.8-4.4
				s0.8-3.2,2-4.3l25.9-23c-41.6-19.4-91.6-59.8-93.9-61.7c-1.4-1.1-2.2-2.9-2.2-4.7s0.8-3.5,2.2-4.7
				c62.4-50.5,69.5-113.1,70.3-124.1c-26.4-43.3-49.7-103.4-64.1-165.4c-14.9-64.4-17.9-122.2-8.2-158.5c5.6-20.8,15.2-35,28.5-42.1
				c6.9-3.7,15-5.6,24.1-5.6c68.2,0,181.4,106.7,201.1,125.8c11-4,45.2-14.5,102.9-14.5s91.9,10.5,102.9,14.5
				c19.7-19.1,133-125.8,201.1-125.8c9.1,0,17.2,1.9,24.1,5.6c13.3,7.2,22.9,21.4,28.5,42.1c9.7,36.3,6.8,94.1-8.2,158.5
				c-14.4,61.9-37.7,122.1-64.1,165.4c0.3,4.9,2,20.4,9.3,40.4c8.2,22.3,25.4,54.9,61,83.7c1.4,1.1,2.2,2.8,2.2,4.7
				c0,1.8-0.8,3.5-2.2,4.7c-2.3,1.8-52.3,42.3-93.9,61.7l25.9,23c1.2,1.1,2,2.7,2,4.3c0,1.7-0.6,3.3-1.8,4.4
				c-1.1,1.1-28.4,27.4-77.5,54C1564,2573,1490.9,2602.2,1400,2602.2z M1126.4,2490.2c9.8,8.5,34.2,28.3,70.5,47.9
				c44,23.8,114.9,52.1,203.2,52.1c88.2,0,159.2-28.3,203.2-52.1c36.3-19.6,60.7-39.4,70.5-47.9l-27.9-24.8
				c-1.6-1.4-2.3-3.5-1.9-5.5c0.4-2,1.8-3.8,3.7-4.5c33.7-13.5,78.2-46.9,93.8-59.1c-34-29.4-50.9-62-59.1-84.6
				c-9.5-26-9.9-44.7-10-45.5c0-1.2,0.3-2.3,0.9-3.3c26.1-42.4,49.3-101.9,63.6-163.4c14.5-62.5,17.5-118.2,8.3-152.7
				c-4.7-17.5-12.3-29.1-22.6-34.7c-5.1-2.8-11.3-4.2-18.4-4.2c-68.4,0-194.2,123.9-195.5,125.1c-1.8,1.7-4.4,2.2-6.7,1.2
				c-0.3-0.1-34.8-15-101.9-15s-101.6,14.8-101.9,15c-2.3,1-4.9,0.5-6.6-1.2c-1.3-1.3-127.1-125.1-195.5-125.1
				c-7.1,0-13.3,1.4-18.4,4.2c-10.3,5.6-17.9,17.2-22.6,34.7c-9.2,34.5-6.2,90.1,8.3,152.7c14.3,61.5,37.4,121,63.6,163.4
				c0.6,1,0.9,2.1,0.9,3.3c0,0.8-0.5,19.5-10,45.5c-8.2,22.6-25.1,55.1-59.1,84.6c15.6,12.2,60.2,45.7,93.8,59.1
				c1.9,0.8,3.3,2.5,3.7,4.5c0.4,2-0.4,4.1-1.9,5.5L1126.4,2490.2z"/>
		</g>
		<g>
			<g>
				<g>
					<path fill="#5E3D1D" d="M1136.1,2208c-0.6,0-1.3-0.1-1.9-0.3c-3.1-1-4.9-4.4-3.8-7.6c22.8-68.9,65.5-124.7,120.2-157.1
						c2.9-1.7,6.5-0.7,8.2,2.1c1.7,2.9,0.7,6.5-2.1,8.2c-52.2,30.9-93,84.4-114.9,150.6C1141,2206.4,1138.6,2208,1136.1,2208z"/>
				</g>
			</g>
			<g>
				<g>
					<path fill="#5E3D1D" d="M1663.9,2208c-2.5,0-4.9-1.6-5.7-4.1c-21.9-66.2-62.7-119.6-114.9-150.6c-2.9-1.7-3.8-5.4-2.1-8.2
						c1.7-2.9,5.4-3.8,8.2-2.1c54.7,32.4,97.4,88.2,120.2,157.1c1,3.1-0.7,6.5-3.8,7.6C1665.2,2207.9,1664.5,2208,1663.9,2208z"/>
				</g>
			</g>
		</g>
		<g>
			<path fill="#5E3D1D" d="M1400,2410.2c21.4,0,53.8-32.8,53.8-52.7c0-16.7-22.6-22.9-53.8-22.9c-31.2,0-53.8,6.2-53.8,22.9
				C1346.2,2377.4,1378.6,2410.2,1400,2410.2z"/>
		</g>
		<g>
			<path fill="#5E3D1D" d="M1400,2432.4c-3.3,0-6-2.7-6-6v-54c0-3.3,2.7-6,6-6s6,2.7,6,6v54C1406,2429.7,1403.3,2432.4,1400,2432.4z
				"/>
		</g>
		<g>
			<circle fill="#5E3D1D" cx="1400" cy="2473.6" r="47.1"/>
			<path fill="#5E3D1D" d="M1400,2526.7c-29.3,0-53.1-23.8-53.1-53.1s23.8-53.1,53.1-53.1c29.3,0,53.1,23.8,53.1,53.1
				S1429.3,2526.7,1400,2526.7z M1400,2432.4c-22.7,0-41.1,18.5-41.1,41.1s18.5,41.1,41.1,41.1s41.1-18.5,41.1-41.1
				S1422.7,2432.4,1400,2432.4z"/>
		</g>
		<g>
			<path fill="#EF3F6B" d="M1400,2473.6c-17.4,0-32.7,9.5-40.8,23.6c8.2,14.1,23.4,23.6,40.8,23.6s32.7-9.5,40.8-23.6
				C1432.7,2483,1417.4,2473.6,1400,2473.6z"/>
			<path fill="#5E3D1D" d="M1400,2526.7c-18.9,0-36.5-10.2-46-26.6c-1.1-1.9-1.1-4.2,0-6c9.5-16.4,27.1-26.6,46-26.6
				c18.9,0,36.5,10.2,46,26.6c1.1,1.9,1.1,4.2,0,6C1436.5,2516.5,1418.9,2526.7,1400,2526.7z M1366.3,2497.1
				c7.7,10.9,20.3,17.6,33.7,17.6c13.4,0,26.1-6.7,33.7-17.6c-7.7-10.9-20.3-17.6-33.7-17.6S1373.9,2486.2,1366.3,2497.1z"/>
		</g>
		<g>
			<g>
				<path fill="#5E3D1D" d="M1308.9,2285.2c-1.5,0-3.1-0.6-4.2-1.8l-55.6-55.6c-2.3-2.3-2.3-6.1,0-8.5c2.3-2.3,6.1-2.3,8.5,0
					l55.6,55.6c2.3,2.3,2.3,6.1,0,8.5C1311.9,2284.6,1310.4,2285.2,1308.9,2285.2z"/>
			</g>
			<g>
				<path fill="#5E3D1D" d="M1253.3,2285.2c-1.5,0-3.1-0.6-4.2-1.8c-2.3-2.3-2.3-6.1,0-8.5l55.6-55.6c2.3-2.3,6.1-2.3,8.5,0
					c2.3,2.3,2.3,6.1,0,8.5l-55.6,55.6C1256.4,2284.6,1254.8,2285.2,1253.3,2285.2z"/>
			</g>
		</g>
		<g>
			<g>
				<path fill="#5E3D1D" d="M1546.7,2285.2c-1.5,0-3.1-0.6-4.2-1.8l-55.6-55.6c-2.3-2.3-2.3-6.1,0-8.5c2.3-2.3,6.1-2.3,8.5,0
					l55.6,55.6c2.3,2.3,2.3,6.1,0,8.5C1549.8,2284.6,1548.2,2285.2,1546.7,2285.2z"/>
			</g>
			<g>
				<path fill="#5E3D1D" d="M1491.1,2285.2c-1.5,0-3.1-0.6-4.2-1.8c-2.3-2.3-2.3-6.1,0-8.5l55.6-55.6c2.3-2.3,6.1-2.3,8.5,0
					c2.3,2.3,2.3,6.1,0,8.5l-55.6,55.6C1494.2,2284.6,1492.7,2285.2,1491.1,2285.2z"/>
			</g>
		</g>
	</g>
	<g>
		<g>
			<path fill="#FBB03B" d="M2246.8,900.2c-173.6,0-282.6-106.1-282.6-106.1l32.9-29.2c-42.6-17.1-101.1-64.6-101.1-64.6
				c71.2-57.7,72.6-130.3,72.6-130.3c-67.7-109.7-110.4-325.1-47-359.2c63.4-34.1,220.9,122,220.9,122s34.9-15.5,104.3-15.5
				c69.4,0,104.3,15.5,104.3,15.5s157.6-156.1,220.9-122c63.4,34.1,20.7,249.5-47,359.2c0,0,1.4,72.6,72.6,130.3
				c0,0-58.5,47.5-101.1,64.6l32.9,29.2C2529.4,794.1,2420.4,900.2,2246.8,900.2z"/>
		</g>
		<g opacity="0.1">
			<path d="M2525.1,570.1c67.7-109.7,110.4-325.1,47-359.2c-63.4-34.1-220.9,122-220.9,122s-34.9-15.5-104.3-15.5
				s-104.3,15.5-104.3,15.5s-157.6-156.1-220.9-122c-63.4,34.1-20.7,249.5,47,359.2c0,0-1.4,72.6-72.6,130.3
				c0,0,58.5,47.5,101.1,64.6l-32.9,29.2c0,0,109,106.1,282.6,106.1c173.6,0,282.6-106.1,282.6-106.1l-32.9-29.2
				c42.6-17.1,101.1-64.6,101.1-64.6C2526.5,642.7,2525.1,570.1,2525.1,570.1z M2246.8,881.4c-81.3,0-264.1-51.8-251.4-255.1
				c12.3-197.2,133.1-284.7,251.4-284.7s239.1,87.4,251.4,284.7C2510.9,829.6,2328.2,881.4,2246.8,881.4z"/>
		</g>
		<g>
			<path fill="#FFFFFF" d="M2380,642.3c-44.4-9.9-93.7-32-93.7-103.5s-2.5-135.6-39.5-135.6s-39.5,64.1-39.5,135.6
				s-49.3,93.7-93.7,103.5c-44.4,9.9-81.3,41.9-60.8,96.1c20.5,54.2,100.5,120.8,194,120.8s173.5-66.5,194-120.8
				C2461.4,684.2,2424.4,652.2,2380,642.3z"/>
		</g>
		<g>
			<path fill="#FFFFFF" d="M2092.1,357.4c-46-58.2-123.7-120.9-146.3-104.5c-24,17.4-15.8,147.2,41.4,241.2
				C2007.6,439.2,2043,389.3,2092.1,357.4z"/>
		</g>
		<g>
			<path fill="#FFFFFF" d="M2547.9,252.9c-22.6-16.5-100.3,46.3-146.3,104.5c49,32,84.4,81.8,104.9,136.7
				C2563.8,400,2571.9,270.3,2547.9,252.9z"/>
		</g>
		<g>
			<path fill="#5E3D1D" d="M2246.8,714.2c21.4,0,53.8-32.8,53.8-52.7c0-16.7-22.6-22.9-53.8-22.9c-31.2,0-53.8,6.2-53.8,22.9
				C2193,681.4,2225.5,714.2,2246.8,714.2z"/>
		</g>
		<g>
			<g>
				<path fill="#5E3D1D" d="M2280.9,770.5c-14.4,0-27-7.6-34-19c-7.1,11.4-19.7,19-34,19c-22.1,0-40-18-40-40c0-3.3,2.7-6,6-6
					s6,2.7,6,6c0,15.5,12.6,28,28,28s28-12.6,28-28c0-3.3,2.7-6,6-6s6,2.7,6,6c0,15.5,12.6,28,28,28s28-12.6,28-28c0-3.3,2.7-6,6-6
					s6,2.7,6,6C2320.9,752.5,2302.9,770.5,2280.9,770.5z"/>
			</g>
			<g>
				<path fill="#5E3D1D" d="M2246.8,736.4c-3.3,0-6-2.7-6-6v-54c0-3.3,2.7-6,6-6s6,2.7,6,6v54
					C2252.8,733.8,2250.1,736.4,2246.8,736.4z"/>
			</g>
		</g>
		<g opacity="0.1">
			<path d="M1987.1,494.1c4-10.7,8.5-21.1,13.6-31.3c-41-70.9-80.5-177.1-55-209.9C1921.7,270.3,1929.9,400,1987.1,494.1z"/>
		</g>
		<g opacity="0.1">
			<path d="M2506.5,494.1c-4-10.7-8.5-21.1-13.6-31.3c41-70.9,80.5-177.1,55-209.9C2571.9,270.3,2563.8,400,2506.5,494.1z"/>
		</g>
		<g>
			<path fill="#5E3D1D" d="M2246.8,906.2c-90.9,0-164-29.2-209.3-53.8c-49.1-26.6-76.4-52.9-77.5-54c-1.2-1.2-1.9-2.8-1.8-4.4
				c0-1.7,0.8-3.2,2-4.3l25.9-23c-41.6-19.4-91.6-59.8-93.9-61.7c-1.4-1.1-2.2-2.9-2.2-4.7c0-1.8,0.8-3.5,2.2-4.7
				c35.5-28.8,52.8-61.4,61-83.7c7.3-20,9-35.5,9.3-40.4c-26.4-43.3-49.7-103.4-64.1-165.4c-14.9-64.4-17.9-122.2-8.2-158.5
				c5.6-20.8,15.2-35,28.5-42.1c6.9-3.7,15-5.6,24.1-5.6c68.2,0,181.4,106.7,201.1,125.8c11-4,45.2-14.5,102.9-14.5
				s91.9,10.5,102.9,14.5c19.7-19.1,133-125.8,201.1-125.8c9.1,0,17.2,1.9,24.1,5.6c13.3,7.2,22.9,21.4,28.5,42.1
				c9.7,36.3,6.8,94.1-8.2,158.5c-14.4,61.9-37.7,122.1-64.1,165.4c0.3,4.9,2,20.4,9.3,40.4c8.2,22.3,25.4,54.9,61,83.7
				c1.4,1.1,2.2,2.8,2.2,4.7c0,1.8-0.8,3.5-2.2,4.7c-2.3,1.8-52.3,42.3-93.9,61.7l25.9,23c1.2,1.1,2,2.7,2,4.3
				c0,1.7-0.6,3.3-1.8,4.4c-1.1,1.1-28.4,27.4-77.5,54C2410.8,877,2337.8,906.2,2246.8,906.2z M1973.2,794.2
				c9.8,8.5,34.2,28.3,70.5,47.9c44,23.8,114.9,52.1,203.2,52.1s159.2-28.3,203.2-52.1c36.3-19.6,60.7-39.4,70.5-47.9l-27.9-24.8
				c-1.6-1.4-2.3-3.5-1.9-5.5c0.4-2,1.8-3.8,3.7-4.5c33.7-13.5,78.2-46.9,93.8-59.1c-34-29.4-50.9-62-59.1-84.6
				c-9.5-26-9.9-44.7-10-45.5c0-1.2,0.3-2.3,0.9-3.3c26.1-42.4,49.3-101.9,63.6-163.4c14.5-62.5,17.5-118.2,8.3-152.7
				c-4.7-17.5-12.3-29.1-22.6-34.7c-5.1-2.8-11.3-4.2-18.4-4.2c-68.4,0-194.2,123.9-195.5,125.1c-1.8,1.7-4.4,2.2-6.7,1.2
				c-0.3-0.1-34.8-15-101.9-15s-101.6,14.8-101.9,15c-2.3,1-4.9,0.5-6.6-1.2c-1.3-1.3-127.1-125.1-195.5-125.1
				c-7.1,0-13.3,1.4-18.4,4.2c-10.3,5.6-17.9,17.2-22.6,34.7c-9.2,34.5-6.2,90.1,8.3,152.7c14.3,61.5,37.4,121,63.6,163.4
				c0.6,1,0.9,2.1,0.9,3.3c0,0.8-0.5,19.5-10,45.5c-8.2,22.6-25.1,55.1-59.1,84.6c15.6,12.2,60.2,45.7,93.8,59.1
				c1.9,0.8,3.3,2.5,3.7,4.5c0.4,2-0.4,4.1-1.9,5.5L1973.2,794.2z"/>
		</g>
		<g>
			<g>
				<g>
					<path fill="#5E3D1D" d="M1982.9,512c-0.6,0-1.3-0.1-1.9-0.3c-3.1-1-4.9-4.4-3.8-7.6c22.8-68.9,65.5-124.7,120.2-157.1
						c2.9-1.7,6.5-0.7,8.2,2.1c1.7,2.9,0.7,6.5-2.1,8.2c-52.2,30.9-93,84.4-114.9,150.6C1987.8,510.4,1985.4,512,1982.9,512z"/>
				</g>
			</g>
			<g>
				<g>
					<path fill="#5E3D1D" d="M2510.7,512c-2.5,0-4.9-1.6-5.7-4.1c-21.9-66.2-62.7-119.6-114.9-150.6c-2.9-1.7-3.8-5.4-2.1-8.2
						c1.7-2.9,5.4-3.8,8.2-2.1c54.7,32.4,97.4,88.2,120.2,157.1c1,3.1-0.7,6.5-3.8,7.6C2512,511.9,2511.4,512,2510.7,512z"/>
				</g>
			</g>
		</g>
		<g>
			<path fill="#5E3D1D" d="M2402.8,596.9c-0.9,0-1.8-0.2-2.7-0.6l-71-35.5c-2-1-3.3-3.1-3.3-5.4s1.3-4.4,3.3-5.4l71-35.5
				c3-1.5,6.6-0.3,8,2.7c1.5,3,0.3,6.6-2.7,8l-60.2,30.1l60.2,30.1c3,1.5,4.2,5.1,2.7,8C2407.1,595.7,2405,596.9,2402.8,596.9z"/>
		</g>
		<g>
			<path fill="#5E3D1D" d="M2090.8,596.9c-2.2,0-4.3-1.2-5.4-3.3c-1.5-3-0.3-6.6,2.7-8l60.2-30.1l-60.2-30.1c-3-1.5-4.2-5.1-2.7-8
				c1.5-3,5.1-4.2,8-2.7l71,35.5c2,1,3.3,3.1,3.3,5.4s-1.3,4.4-3.3,5.4l-71,35.5C2092.6,596.7,2091.7,596.9,2090.8,596.9z"/>
		</g>
	</g>
	<g>
		<g>
			<path fill="#FBB03B" d="M553.2,2593.9c-173.6,0-282.6-106.1-282.6-106.1l32.9-29.2c-42.6-17.1-101.1-64.6-101.1-64.6
				c71.2-57.7,72.6-130.3,72.6-130.3c-67.7-109.7-110.4-325.1-47-359.2c63.4-34.1,220.9,122,220.9,122s34.9-15.5,104.3-15.5
				s104.3,15.5,104.3,15.5s157.6-156.1,220.9-122c63.4,34.1,20.7,249.5-47,359.2c0,0,1.4,72.6,72.6,130.3c0,0-58.5,47.5-101.1,64.6
				l32.9,29.2C835.8,2487.8,726.8,2593.9,553.2,2593.9z"/>
		</g>
		<g opacity="0.1">
			<path d="M831.4,2263.7c67.7-109.7,110.4-325.1,47-359.2c-63.4-34.1-220.9,122-220.9,122s-34.9-15.5-104.3-15.5
				s-104.3,15.5-104.3,15.5s-157.6-156.1-220.9-122c-63.4,34.1-20.7,249.5,47,359.2c0,0-1.4,72.6-72.6,130.3
				c0,0,58.5,47.5,101.1,64.6l-32.9,29.2c0,0,109,106.1,282.6,106.1s282.6-106.1,282.6-106.1l-32.9-29.2
				C845.5,2441.5,904,2394,904,2394C832.8,2336.3,831.4,2263.7,831.4,2263.7z M553.2,2575.1c-81.3,0-264.1-51.8-251.4-255.1
				c12.3-197.2,133.1-284.7,251.4-284.7s239.1,87.4,251.4,284.7C817.3,2523.3,634.5,2575.1,553.2,2575.1z"/>
		</g>
		<g>
			<path fill="#FFFFFF" d="M686.4,2336c-44.4-9.9-93.7-32-93.7-103.5c0-71.5-2.5-135.6-39.5-135.6c-37.1,0-39.5,64.1-39.5,135.6
				c0,71.5-49.3,93.7-93.7,103.5s-81.3,41.9-60.8,96.1c20.5,54.2,100.5,120.8,194,120.8s173.5-66.5,194-120.8
				C767.7,2377.9,730.8,2345.8,686.4,2336z"/>
		</g>
		<g>
			<path fill="#FFFFFF" d="M398.4,2051c-46-58.2-123.7-120.9-146.3-104.5c-24,17.4-15.8,147.2,41.4,241.2
				C314,2132.8,349.4,2083,398.4,2051z"/>
		</g>
		<g>
			<path fill="#FFFFFF" d="M854.3,1946.5c-22.6-16.5-100.3,46.3-146.3,104.5c49,32,84.4,81.8,104.9,136.7
				C870.1,2093.7,878.3,1964,854.3,1946.5z"/>
		</g>
		<g>
			<path fill="#5E3D1D" d="M553.2,2407.9c21.4,0,53.8-32.8,53.8-52.7c0-16.7-22.6-22.9-53.8-22.9s-53.8,6.2-53.8,22.9
				C499.4,2375.1,531.8,2407.9,553.2,2407.9z"/>
		</g>
		<g opacity="0.1">
			<path d="M293.5,2187.7c4-10.7,8.5-21.1,13.6-31.3c-41-70.9-80.5-177.1-55-209.9C228.1,1964,236.2,2093.7,293.5,2187.7z"/>
		</g>
		<g opacity="0.1">
			<path d="M812.9,2187.7c-4-10.7-8.5-21.1-13.6-31.3c41-70.9,80.5-177.1,55-209.9C878.3,1964,870.1,2093.7,812.9,2187.7z"/>
		</g>
		<g>
			<path fill="#5E3D1D" d="M553.2,2599.9c-90.9,0-164-29.2-209.3-53.8c-49.1-26.6-76.4-52.9-77.5-54c-1.2-1.2-1.9-2.8-1.8-4.4
				s0.8-3.2,2-4.3l25.9-23c-41.6-19.4-91.6-59.8-93.9-61.7c-1.4-1.1-2.2-2.9-2.2-4.7s0.8-3.5,2.2-4.7
				c62.4-50.5,69.5-113.1,70.3-124.1c-26.4-43.3-49.7-103.4-64.1-165.4c-14.9-64.4-17.9-122.2-8.2-158.5c5.6-20.8,15.2-35,28.5-42.1
				c6.9-3.7,15-5.6,24.1-5.6c68.2,0,181.4,106.7,201.1,125.8c11-4,45.2-14.5,102.9-14.5s91.9,10.5,102.9,14.5
				c19.7-19.1,133-125.8,201.1-125.8c9.1,0,17.2,1.9,24.1,5.6c13.3,7.2,22.9,21.4,28.5,42.1c9.7,36.3,6.8,94.1-8.2,158.5
				c-14.4,61.9-37.7,122.1-64.1,165.4c0.3,4.9,2,20.4,9.3,40.4c8.2,22.3,25.4,54.9,61,83.7c1.4,1.1,2.2,2.8,2.2,4.7
				s-0.8,3.5-2.2,4.7c-2.3,1.8-52.3,42.3-93.9,61.7l25.9,23c1.2,1.1,2,2.7,2,4.3s-0.6,3.3-1.8,4.4c-1.1,1.1-28.4,27.4-77.5,54
				C717.2,2570.6,644.1,2599.9,553.2,2599.9z M279.5,2487.8c9.8,8.5,34.2,28.3,70.5,47.9c44,23.8,114.9,52.1,203.2,52.1
				s159.2-28.3,203.2-52.1c36.3-19.6,60.7-39.4,70.5-47.9l-27.9-24.8c-1.6-1.4-2.3-3.5-1.9-5.5c0.4-2,1.8-3.8,3.7-4.5
				c33.7-13.5,78.2-46.9,93.8-59.1c-34-29.4-50.9-62-59.1-84.6c-9.5-26-9.9-44.7-10-45.5c0-1.2,0.3-2.3,0.9-3.3
				c26.1-42.4,49.3-101.9,63.6-163.4c14.5-62.5,17.5-118.2,8.3-152.7c-4.7-17.5-12.3-29.1-22.6-34.7c-5.1-2.8-11.3-4.2-18.4-4.2
				c-68.4,0-194.2,123.9-195.5,125.1c-1.8,1.7-4.4,2.2-6.7,1.2c-0.3-0.1-34.8-15-101.9-15s-101.6,14.8-101.9,15
				c-2.3,1-4.9,0.5-6.6-1.2c-1.3-1.3-127.1-125.1-195.5-125.1c-7.1,0-13.3,1.4-18.4,4.2c-10.3,5.6-17.9,17.2-22.6,34.7
				c-9.2,34.5-6.2,90.1,8.3,152.7c14.3,61.5,37.4,121,63.6,163.4c0.6,1,0.9,2.1,0.9,3.3c0,0.8-0.5,19.5-10,45.5
				c-8.2,22.6-25.1,55.1-59.1,84.6c15.6,12.2,60.2,45.7,93.8,59.1c1.9,0.8,3.3,2.5,3.7,4.5c0.4,2-0.4,4.1-1.9,5.5L279.5,2487.8z"/>
		</g>
		<g>
			<g>
				<g>
					<path fill="#5E3D1D" d="M289.3,2205.6c-0.6,0-1.3-0.1-1.9-0.3c-3.1-1-4.9-4.4-3.8-7.6c22.8-68.9,65.5-124.7,120.2-157.1
						c2.9-1.7,6.5-0.7,8.2,2.1c1.7,2.9,0.7,6.5-2.1,8.2c-52.2,30.9-93,84.4-114.9,150.6C294.1,2204,291.8,2205.6,289.3,2205.6z"/>
				</g>
			</g>
			<g>
				<g>
					<path fill="#5E3D1D" d="M817.1,2205.6c-2.5,0-4.9-1.6-5.7-4.1c-21.9-66.2-62.7-119.6-114.9-150.6c-2.9-1.7-3.8-5.4-2.1-8.2
						c1.7-2.9,5.4-3.8,8.2-2.1c54.7,32.4,97.4,88.2,120.2,157.1c1,3.1-0.7,6.5-3.8,7.6C818.3,2205.5,817.7,2205.6,817.1,2205.6z"/>
				</g>
			</g>
		</g>
		<g>
			<path fill="#5E3D1D" d="M709.2,2290.6c-0.9,0-1.8-0.2-2.7-0.6l-71-35.5c-2-1-3.3-3.1-3.3-5.4s1.3-4.4,3.3-5.4l71-35.5
				c3-1.5,6.6-0.3,8,2.7c1.5,3,0.3,6.6-2.7,8l-60.2,30.1l60.2,30.1c3,1.5,4.2,5.1,2.7,8C713.5,2289.4,711.4,2290.6,709.2,2290.6z"/>
		</g>
		<g>
			<path fill="#5E3D1D" d="M397.2,2290.6c-2.2,0-4.3-1.2-5.4-3.3c-1.5-3-0.3-6.6,2.7-8l60.2-30.1l-60.2-30.1c-3-1.5-4.2-5.1-2.7-8
				c1.5-3,5.1-4.2,8-2.7l71,35.5c2,1,3.3,3.1,3.3,5.4s-1.3,4.4-3.3,5.4l-71,35.5C399,2290.4,398.1,2290.6,397.2,2290.6z"/>
		</g>
		<g>
			<g>
				<path fill="#EF3F6B" d="M553.2,2424.1c0,18.8-15.2,34-34,34c-3,0-5.9-0.4-8.7-1.1v29.2c0,23.6,19.1,42.7,42.7,42.7h0
					c23.6,0,42.7-19.1,42.7-42.7V2457c-2.8,0.7-5.7,1.1-8.7,1.1C568.4,2458.1,553.2,2442.9,553.2,2424.1z"/>
				<path fill="#5E3D1D" d="M553.2,2534.9c-26.9,0-48.7-21.9-48.7-48.7V2457c0-1.9,0.9-3.6,2.3-4.8c1.5-1.1,3.4-1.5,5.2-1.1
					c2.3,0.6,4.7,0.9,7.2,0.9c15.5,0,28-12.6,28-28c0-3.3,2.7-6,6-6s6,2.7,6,6c0,15.5,12.6,28,28,28c2.4,0,4.8-0.3,7.2-0.9
					c1.8-0.5,3.7-0.1,5.2,1.1c1.5,1.1,2.3,2.9,2.3,4.8v29.2C601.9,2513.1,580,2534.9,553.2,2534.9z M516.4,2464v22.1
					c0,20.3,16.5,36.7,36.7,36.7s36.7-16.5,36.7-36.7V2464c-0.9,0.1-1.8,0.1-2.7,0.1c-14.4,0-27-7.6-34-19c-7.1,11.4-19.7,19-34,19
					C518.2,2464.1,517.3,2464.1,516.4,2464z"/>
			</g>
		</g>
		<g>
			<g>
				<path fill="#5E3D1D" d="M587.2,2464.1c-14.4,0-27-7.6-34-19c-7.1,11.4-19.7,19-34,19c-22.1,0-40-18-40-40c0-3.3,2.7-6,6-6
					s6,2.7,6,6c0,15.5,12.6,28,28,28s28-12.6,28-28c0-3.3,2.7-6,6-6s6,2.7,6,6c0,15.5,12.6,28,28,28s28-12.6,28-28c0-3.3,2.7-6,6-6
					s6,2.7,6,6C627.3,2446.2,609.3,2464.1,587.2,2464.1z"/>
			</g>
			<g>
				<path fill="#5E3D1D" d="M553.2,2498.2c-3.3,0-6-2.7-6-6v-122.1c0-3.3,2.7-6,6-6s6,2.7,6,6v122.1
					C559.2,2495.5,556.5,2498.2,553.2,2498.2z"/>
			</g>
		</g>
	</g>
	<g>
		<g>
			<path fill="#FBB03B" d="M1400,1747.1c-173.6,0-282.6-106.1-282.6-106.1l32.9-29.2c-42.6-17.1-101.1-64.6-101.1-64.6
				c71.2-57.7,72.6-130.3,72.6-130.3c-67.7-109.7-110.4-325.1-47-359.2c63.4-34.1,220.9,122,220.9,122s34.9-15.5,104.3-15.5
				s104.3,15.5,104.3,15.5s157.6-156.1,220.9-122c63.4,34.1,20.7,249.5-47,359.2c0,0,1.4,72.6,72.6,130.3c0,0-58.5,47.5-101.1,64.6
				l32.9,29.2C1682.6,1641,1573.6,1747.1,1400,1747.1z"/>
		</g>
		<g opacity="0.1">
			<path d="M1678.2,1416.9c67.7-109.7,110.4-325.1,47-359.2c-63.4-34.1-220.9,122-220.9,122s-34.9-15.5-104.3-15.5
				s-104.3,15.5-104.3,15.5s-157.6-156.1-220.9-122c-63.4,34.1-20.7,249.5,47,359.2c0,0-1.4,72.6-72.6,130.3
				c0,0,58.5,47.5,101.1,64.6l-32.9,29.2c0,0,109,106.1,282.6,106.1s282.6-106.1,282.6-106.1l-32.9-29.2
				c42.6-17.1,101.1-64.6,101.1-64.6C1679.6,1489.5,1678.2,1416.9,1678.2,1416.9z M1400,1728.2c-81.3,0-264.1-51.8-251.4-255.1
				c12.3-197.2,133.1-284.7,251.4-284.7s239.1,87.4,251.4,284.7C1664.1,1676.4,1481.3,1728.2,1400,1728.2z"/>
		</g>
		<g>
			<path fill="#FFFFFF" d="M1533.2,1489.1c-44.4-9.9-93.7-32-93.7-103.5s-2.5-135.6-39.5-135.6s-39.5,64.1-39.5,135.6
				s-49.3,93.7-93.7,103.5c-44.4,9.9-81.3,41.9-60.8,96.1c20.5,54.2,100.5,120.8,194,120.8s173.5-66.5,194-120.8
				C1614.5,1531,1577.6,1499,1533.2,1489.1z"/>
		</g>
		<g>
			<path fill="#FFFFFF" d="M1245.2,1204.2c-46-58.2-123.7-120.9-146.3-104.5c-24,17.4-15.8,147.2,41.4,241.2
				C1160.8,1286,1196.2,1236.2,1245.2,1204.2z"/>
		</g>
		<g>
			<path fill="#FFFFFF" d="M1701.1,1099.7c-22.6-16.5-100.3,46.3-146.3,104.5c49,32,84.4,81.8,104.9,136.7
				C1716.9,1246.9,1725.1,1117.1,1701.1,1099.7z"/>
		</g>
		<g>
			<path fill="#5E3D1D" d="M1400,1561.1c21.4,0,53.8-32.8,53.8-52.7c0-16.7-22.6-22.9-53.8-22.9c-31.2,0-53.8,6.2-53.8,22.9
				C1346.2,1528.2,1378.6,1561.1,1400,1561.1z"/>
		</g>
		<g>
			<g>
				<path fill="#5E3D1D" d="M1434,1617.3c-14.4,0-27-7.6-34-19c-7.1,11.4-19.7,19-34,19c-22.1,0-40-18-40-40c0-3.3,2.7-6,6-6
					s6,2.7,6,6c0,15.5,12.6,28,28,28s28-12.6,28-28c0-3.3,2.7-6,6-6s6,2.7,6,6c0,15.5,12.6,28,28,28s28-12.6,28-28c0-3.3,2.7-6,6-6
					s6,2.7,6,6C1474.1,1599.3,1456.1,1617.3,1434,1617.3z"/>
			</g>
			<g>
				<path fill="#5E3D1D" d="M1400,1583.3c-3.3,0-6-2.7-6-6v-54c0-3.3,2.7-6,6-6s6,2.7,6,6v54C1406,1580.6,1403.3,1583.3,1400,1583.3
					z"/>
			</g>
		</g>
		<g opacity="0.1">
			<path d="M1140.3,1340.9c4-10.7,8.5-21.1,13.6-31.3c-41-70.9-80.5-177.1-55-209.9C1074.9,1117.1,1083.1,1246.9,1140.3,1340.9z"/>
		</g>
		<g opacity="0.1">
			<path d="M1659.7,1340.9c-4-10.7-8.5-21.1-13.6-31.3c41-70.9,80.5-177.1,55-209.9C1725.1,1117.1,1716.9,1246.9,1659.7,1340.9z"/>
		</g>
		<g>
			<path fill="#5E3D1D" d="M1400,1753.1c-90.9,0-164-29.2-209.3-53.8c-49.1-26.6-76.4-52.9-77.5-54c-1.2-1.2-1.9-2.8-1.8-4.4
				s0.8-3.2,2-4.3l25.9-23c-41.6-19.4-91.6-59.8-93.9-61.7c-1.4-1.1-2.2-2.9-2.2-4.7s0.8-3.5,2.2-4.7
				c62.4-50.5,69.5-113.1,70.3-124.1c-26.4-43.3-49.7-103.4-64.1-165.4c-14.9-64.4-17.9-122.2-8.2-158.5c5.6-20.8,15.2-35,28.5-42.1
				c6.9-3.7,15-5.6,24.1-5.6c68.2,0,181.4,106.7,201.1,125.8c11-4,45.2-14.5,102.9-14.5s91.9,10.5,102.9,14.5
				c19.7-19.1,133-125.8,201.1-125.8c9.1,0,17.2,1.9,24.1,5.6c13.3,7.2,22.9,21.4,28.5,42.1c9.7,36.3,6.8,94.1-8.2,158.5
				c-14.4,61.9-37.7,122.1-64.1,165.4c0.3,4.9,2,20.4,9.3,40.4c8.2,22.3,25.4,54.9,61,83.7c1.4,1.1,2.2,2.8,2.2,4.7
				c0,1.8-0.8,3.5-2.2,4.7c-2.3,1.8-52.3,42.3-93.9,61.7l25.9,23c1.2,1.1,2,2.7,2,4.3c0,1.7-0.6,3.3-1.8,4.4
				c-1.1,1.1-28.4,27.4-77.5,54C1564,1723.8,1490.9,1753.1,1400,1753.1z M1126.4,1641c9.8,8.5,34.2,28.3,70.5,47.9
				c44,23.8,114.9,52.1,203.2,52.1c88.2,0,159.2-28.3,203.2-52.1c36.3-19.6,60.7-39.4,70.5-47.9l-27.9-24.8
				c-1.6-1.4-2.3-3.5-1.9-5.5c0.4-2,1.8-3.8,3.7-4.5c33.7-13.5,78.2-46.9,93.8-59.1c-34-29.4-50.9-62-59.1-84.6
				c-9.5-26-9.9-44.7-10-45.5c0-1.2,0.3-2.3,0.9-3.3c26.1-42.4,49.3-101.9,63.6-163.4c14.5-62.5,17.5-118.2,8.3-152.7
				c-4.7-17.5-12.3-29.1-22.6-34.7c-5.1-2.8-11.3-4.2-18.4-4.2c-68.4,0-194.2,123.9-195.5,125.1c-1.8,1.7-4.4,2.2-6.7,1.2
				c-0.3-0.1-34.8-15-101.9-15s-101.6,14.8-101.9,15c-2.3,1-4.9,0.5-6.6-1.2c-1.3-1.3-127.1-125.1-195.5-125.1
				c-7.1,0-13.3,1.4-18.4,4.2c-10.3,5.6-17.9,17.2-22.6,34.7c-9.2,34.5-6.2,90.1,8.3,152.7c14.3,61.5,37.4,121,63.6,163.4
				c0.6,1,0.9,2.1,0.9,3.3c0,0.8-0.5,19.5-10,45.5c-8.2,22.6-25.1,55.1-59.1,84.6c15.6,12.2,60.2,45.7,93.8,59.1
				c1.9,0.8,3.3,2.5,3.7,4.5c0.4,2-0.4,4.1-1.9,5.5L1126.4,1641z"/>
		</g>
		<g>
			<g>
				<g>
					<path fill="#5E3D1D" d="M1136.1,1358.8c-0.6,0-1.3-0.1-1.9-0.3c-3.1-1-4.9-4.4-3.8-7.6c22.8-68.9,65.5-124.7,120.2-157.1
						c2.9-1.7,6.5-0.7,8.2,2.1c1.7,2.9,0.7,6.5-2.1,8.2c-52.2,30.9-93,84.4-114.9,150.6C1141,1357.2,1138.6,1358.8,1136.1,1358.8z"
						/>
				</g>
			</g>
			<g>
				<g>
					<path fill="#5E3D1D" d="M1663.9,1358.8c-2.5,0-4.9-1.6-5.7-4.1c-21.9-66.2-62.7-119.6-114.9-150.6c-2.9-1.7-3.8-5.4-2.1-8.2
						c1.7-2.9,5.4-3.8,8.2-2.1c54.7,32.4,97.4,88.2,120.2,157.1c1,3.1-0.7,6.5-3.8,7.6C1665.2,1358.7,1664.5,1358.8,1663.9,1358.8z"
						/>
				</g>
			</g>
		</g>
		<g>
			<path fill="#5E3D1D" d="M1127.3,1317.5c14.9-2.9,50.4-8.1,110.8-8.1c83.2,0,127.6,24.3,161.9,24.3c34.3,0,78.7-24.3,161.9-24.3
				c60.4,0,95.9,5.2,110.8,8.1c4.7,0.9,7.8,5.3,7,10l-4,23.9c-0.4,2.3-2.1,4.1-4.4,4.5c-2.3,0.5-4,2.3-4.4,4.6
				c-1.8,11.7-8.6,48.1-26.1,79.1c-12.5,22.1-51.6,33.5-93.5,33.5c-42.8,0-98.7-12.7-122.3-86.5c-3.5-10.9-13.6-18.4-25-18.4
				c-11.4,0-21.5,7.4-25,18.4c-23.6,73.8-79.5,86.5-122.3,86.5c-41.9,0-81.1-11.4-93.5-33.5c-17.5-31-24.3-67.4-26.1-79.1
				c-0.4-2.3-2.1-4.1-4.4-4.6c-2.2-0.5-4-2.3-4.4-4.5l-4-23.9C1119.5,1322.9,1122.6,1318.4,1127.3,1317.5z"/>
		</g>
	</g>
</g>
</svg>
