<?xml version="1.0" encoding="UTF-8" standalone="no"?>
<!-- Created with Inkscape (http://www.inkscape.org/) -->

<svg
   xmlns:dc="http://purl.org/dc/elements/1.1/"
   xmlns:cc="http://creativecommons.org/ns#"
   xmlns:rdf="http://www.w3.org/1999/02/22-rdf-syntax-ns#"
   xmlns:svg="http://www.w3.org/2000/svg"
   xmlns="http://www.w3.org/2000/svg"
   xmlns:sodipodi="http://sodipodi.sourceforge.net/DTD/sodipodi-0.dtd"
   xmlns:inkscape="http://www.inkscape.org/namespaces/inkscape"
   width="128.77274mm"
   height="51.491787mm"
   viewBox="0 0 128.77274 51.491787"
   version="1.1"
   id="svg6155"
   inkscape:version="0.92.5 (2060ec1f9f, 2020-04-08)"
   sodipodi:docname="logo-annoyed.svg">
  <defs
     id="defs6149" />
  <sodipodi:namedview
     id="base"
     pagecolor="#ffffff"
     bordercolor="#666666"
     borderopacity="1.0"
     inkscape:pageopacity="0.0"
     inkscape:pageshadow="2"
     inkscape:zoom="1.3293607"
     inkscape:cx="245.5288"
     inkscape:cy="156.58409"
     inkscape:document-units="mm"
     inkscape:current-layer="layer1"
     showgrid="false"
     fit-margin-top="0"
     fit-margin-left="0"
     fit-margin-right="0"
     fit-margin-bottom="0"
     inkscape:window-width="1294"
     inkscape:window-height="704"
     inkscape:window-x="72"
     inkscape:window-y="27"
     inkscape:window-maximized="1"
     inkscape:snap-global="false" />
  <metadata
     id="metadata6152">
    <rdf:RDF>
      <cc:Work
         rdf:about="">
        <dc:format>image/svg+xml</dc:format>
        <dc:type
           rdf:resource="http://purl.org/dc/dcmitype/StillImage" />
        <dc:title></dc:title>
      </cc:Work>
    </rdf:RDF>
  </metadata>
  <g
     inkscape:label="Layer 1"
     inkscape:groupmode="layer"
     id="layer1"
     transform="translate(-23.883667,-71.157494)">
    <ellipse
       ry="24.978329"
       rx="64.386368"
       cy="97.670952"
       cx="88.270035"
       id="path6272"
       style="font-style:normal;font-weight:normal;font-size:10.58333302px;line-height:1.25;font-family:sans-serif;letter-spacing:0px;word-spacing:0px;fill:#000000;fill-opacity:1;stroke:none;stroke-width:0.39533904" />
    <g
       style="font-style:normal;font-weight:normal;font-size:10.58333302px;line-height:1.25;font-family:sans-serif;letter-spacing:0px;word-spacing:0px;fill:#5e3d1d;fill-opacity:1;stroke:none;stroke-width:0.26458332"
       id="g6268"
       transform="matrix(2.729511,0,0,2.729511,-155.07727,-159.89359)">
      <path
         inkscape:connector-curvature="0"
         id="path6256"
         style="font-style:normal;font-variant:normal;font-weight:normal;font-stretch:normal;fill:#5e3d1d;fill-opacity:1;stroke-width:0.26458332"
         d="m 86.820406,91.937005 -0.889,0.105834 0.624417,5.0165 q 0.01058,0.08467 0.01058,0.169333 0,0.423333 -0.264583,0.709083 -0.254,0.275167 -0.66675,0.328084 -0.455083,0.05292 -0.79375,-0.201084 -0.328083,-0.254 -0.391583,-0.751416 l -0.613834,-5.005917 -0.889,0.105833 q -0.47625,0.05292 -0.783166,-0.232833 -0.264584,-0.243417 -0.306917,-0.635 -0.05292,-0.391583 0.179917,-0.719666 0.232833,-0.338667 0.677333,-0.391584 l 3.862916,-0.47625 q 0.4445,-0.05292 0.762,0.22225 0.28575,0.254 0.338667,0.645584 0.04233,0.391583 -0.148167,0.6985 -0.232833,0.349249 -0.709083,0.412749 z" />
      <path
         inkscape:connector-curvature="0"
         id="path6258"
         style="font-style:normal;font-variant:normal;font-weight:normal;font-stretch:normal;fill:#5e3d1d;fill-opacity:1;stroke-width:0.26458332"
         d="m 92.26023,97.768422 q -0.137583,0.03175 -0.275166,0.03175 -0.359834,0 -0.624417,-0.275167 -0.455083,0.624417 -1.2065,0.79375 -0.306917,0.07408 -0.613833,0.07408 -0.994834,0 -1.778,-0.6985 -0.772584,-0.709084 -1.04775,-1.862667 -0.09525,-0.423333 -0.09525,-0.846667 0,-1.068916 0.5715,-1.87325 0.5715,-0.814916 1.513416,-1.037166 0.264584,-0.0635 0.518584,-0.0635 0.497416,0 0.92075,0.22225 0.1905,-0.465667 0.6985,-0.592667 0.169333,-0.03175 0.3175,-0.03175 0.6985,0 0.941916,1.037167 l 0.846667,3.672416 q 0.07408,0.338667 0.07408,0.560917 0,0.719667 -0.762,0.889 z m -3.58775,-2.82575 q 0,0.211667 0.04233,0.433917 0.105833,0.455083 0.381,0.751416 0.275166,0.296334 0.635,0.296334 0.41275,0 0.635,-0.328084 0.211666,-0.28575 0.211666,-0.719666 0,-0.201084 -0.05292,-0.423334 -0.105834,-0.465666 -0.381,-0.762 -0.275167,-0.306916 -0.624417,-0.306916 -0.41275,0 -0.635,0.3175 -0.211667,0.306916 -0.211667,0.740833 z" />
      <path
         inkscape:connector-curvature="0"
         id="path6260"
         style="font-style:normal;font-variant:normal;font-weight:normal;font-stretch:normal;fill:#5e3d1d;fill-opacity:1;stroke-width:0.26458332"
         d="m 95.82681,98.287005 q -0.328084,0.07408 -0.740834,0.07408 -0.677333,0 -1.2065,-0.22225 -0.719666,-0.28575 -0.719666,-0.878417 0,-0.306917 0.15875,-0.5715 0.1905,-0.3175 0.53975,-0.391583 0.137583,-0.03175 0.275166,-0.03175 0.211667,0 0.5715,0.105833 0.370417,0.105833 0.5715,0.105833 0.116417,0 0.232834,-0.03175 0.338666,-0.07408 0.296333,-0.243416 -0.02117,-0.08467 -0.740833,-0.179917 -0.899584,-0.105833 -1.386417,-0.338667 -0.79375,-0.370416 -0.973667,-1.164166 -0.0635,-0.243417 -0.0635,-0.47625 0,-0.9525 0.814917,-1.55575 0.740833,-0.550334 1.725083,-0.550334 0.66675,0 1.143,0.232834 0.635,0.296333 0.635,0.889 0,0.370416 -0.243416,0.645583 -0.243417,0.275167 -0.592667,0.275167 -0.15875,0 -0.529167,-0.07408 -0.370416,-0.08467 -0.550333,-0.08467 -0.243417,0 -0.359833,0.08467 -0.07408,0.05292 -0.05292,0.148167 0.02117,0.09525 0.751417,0.179917 0.899583,0.116416 1.386416,0.338666 0.79375,0.381 0.973667,1.164167 0.05292,0.22225 0.05292,0.4445 0,0.751417 -0.53975,1.322917 -0.529167,0.5715 -1.42875,0.783166 z" />
      <path
         inkscape:connector-curvature="0"
         id="path6262"
         style="font-style:normal;font-variant:normal;font-weight:normal;font-stretch:normal;fill:#5e3d1d;fill-opacity:1;stroke-width:0.26458332"
         d="m 100.19772,96.096255 q 0.20108,0.402167 0.45508,1.121834 0.0847,0.211666 0.0847,0.433916 0,0.709084 -0.6985,0.9525 -0.169338,0.0635 -0.338671,0.0635 -0.73025,0 -0.994833,-0.783166 l -2.116667,-6.1595 q -0.07408,-0.211667 -0.07408,-0.423333 0,-0.73025 0.677333,-0.963084 0.169333,-0.0635 0.34925,-0.0635 0.719667,0 0.98425,0.783167 l 0.9525,2.772833 0.772578,-1.524 q 0.35984,-0.709083 0.97367,-0.709083 0.39158,0 0.66675,0.296333 0.28575,0.296333 0.28575,0.687917 0,0.264583 -0.16933,0.550333 l -0.75142,1.354667 2.14842,1.27 q 0.508,0.296333 0.508,0.878416 0,0.6985 -0.65617,0.931334 -0.14817,0.04233 -0.29633,0.04233 -0.32809,0 -0.77259,-0.275167 z" />
      <path
         inkscape:connector-curvature="0"
         id="path6264"
         style="font-style:normal;font-variant:normal;font-weight:normal;font-stretch:normal;fill:#5e3d1d;fill-opacity:1;stroke-width:0.26458332"
         d="m 107.6272,92.878922 -1.05833,6.76275 q -0.127,0.814918 -0.762,0.963088 -0.15875,0.0423 -0.30692,0.0423 -0.34925,0 -0.61383,-0.20108 -0.254,-0.1905 -0.3175,-0.497421 -0.0318,-0.116417 -0.0318,-0.296334 0,-0.423333 0.13758,-1.195916 0.0741,-0.359834 0.13759,-0.719667 l -2.51884,-3.630083 q -0.22225,-0.3175 -0.22225,-0.635 0,-0.338667 0.254,-0.613834 0.22225,-0.254 0.51859,-0.3175 0.13758,-0.03175 0.26458,-0.03175 0.55033,0 0.87842,0.497417 l 1.28058,1.9685 0.34925,-2.3495 q 0.0635,-0.402167 0.33867,-0.66675 0.28575,-0.275167 0.67733,-0.275167 0.32808,0 0.59267,0.169334 0.30691,0.201083 0.381,0.529166 0.0635,0.254 0.0212,0.497417 z" />
      <path
         inkscape:connector-curvature="0"
         id="path6266"
         style="font-style:normal;font-variant:normal;font-weight:normal;font-stretch:normal;fill:#5e3d1d;fill-opacity:1;stroke-width:0.26458332"
         d="m 107.64835,95.080255 q 0,-0.137583 0.0318,-0.275166 l 1.05833,-3.937 q 0.1905,-0.719667 0.94192,-0.719667 0.43392,0 0.74083,0.264584 0.33867,0.296333 0.33867,0.719666 0,0.137584 -0.0423,0.264584 l -1.04774,3.936999 q -0.20109,0.73025 -0.9525,0.73025 -0.43392,0 -0.75142,-0.275166 -0.3175,-0.28575 -0.3175,-0.709084 z m -0.62442,2.084917 q 0,-0.4445 0.3175,-0.762 0.3175,-0.328083 0.77259,-0.328083 0.4445,0 0.762,0.3175 0.32808,0.3175 0.32808,0.772583 0,0.455083 -0.3175,0.772583 -0.3175,0.3175 -0.77258,0.3175 -0.4445,0 -0.77259,-0.3175 -0.3175,-0.3175 -0.3175,-0.772583 z" />
    </g>
    <g
       style="font-style:normal;font-weight:normal;font-size:10.58333302px;line-height:1.25;font-family:sans-serif;letter-spacing:0px;word-spacing:0px;fill:#ffffff;fill-opacity:1;stroke:none;stroke-width:0.26458332"
       transform="matrix(2.5620657,0,0,2.5620657,-138.42013,-144.18196)"
       id="g6254">
      <path
         d="m 86.820406,91.937005 -0.889,0.105834 0.624417,5.0165 q 0.01058,0.08467 0.01058,0.169333 0,0.423333 -0.264583,0.709083 -0.254,0.275167 -0.66675,0.328084 -0.455083,0.05292 -0.79375,-0.201084 -0.328083,-0.254 -0.391583,-0.751416 l -0.613834,-5.005917 -0.889,0.105833 q -0.47625,0.05292 -0.783166,-0.232833 -0.264584,-0.243417 -0.306917,-0.635 -0.05292,-0.391583 0.179917,-0.719666 0.232833,-0.338667 0.677333,-0.391584 l 3.862916,-0.47625 q 0.4445,-0.05292 0.762,0.22225 0.28575,0.254 0.338667,0.645584 0.04233,0.391583 -0.148167,0.6985 -0.232833,0.349249 -0.709083,0.412749 z"
         style="font-style:normal;font-variant:normal;font-weight:normal;font-stretch:normal;fill:#ffffff;fill-opacity:1;stroke-width:0.26458332"
         id="path6235"
         inkscape:connector-curvature="0" />
      <path
         d="m 92.26023,97.768422 q -0.137583,0.03175 -0.275166,0.03175 -0.359834,0 -0.624417,-0.275167 -0.455083,0.624417 -1.2065,0.79375 -0.306917,0.07408 -0.613833,0.07408 -0.994834,0 -1.778,-0.6985 -0.772584,-0.709084 -1.04775,-1.862667 -0.09525,-0.423333 -0.09525,-0.846667 0,-1.068916 0.5715,-1.87325 0.5715,-0.814916 1.513416,-1.037166 0.264584,-0.0635 0.518584,-0.0635 0.497416,0 0.92075,0.22225 0.1905,-0.465667 0.6985,-0.592667 0.169333,-0.03175 0.3175,-0.03175 0.6985,0 0.941916,1.037167 l 0.846667,3.672416 q 0.07408,0.338667 0.07408,0.560917 0,0.719667 -0.762,0.889 z m -3.58775,-2.82575 q 0,0.211667 0.04233,0.433917 0.105833,0.455083 0.381,0.751416 0.275166,0.296334 0.635,0.296334 0.41275,0 0.635,-0.328084 0.211666,-0.28575 0.211666,-0.719666 0,-0.201084 -0.05292,-0.423334 -0.105834,-0.465666 -0.381,-0.762 -0.275167,-0.306916 -0.624417,-0.306916 -0.41275,0 -0.635,0.3175 -0.211667,0.306916 -0.211667,0.740833 z"
         style="font-style:normal;font-variant:normal;font-weight:normal;font-stretch:normal;fill:#ffffff;fill-opacity:1;stroke-width:0.26458332"
         id="path6237"
         inkscape:connector-curvature="0" />
      <path
         d="m 95.82681,98.287005 q -0.328084,0.07408 -0.740834,0.07408 -0.677333,0 -1.2065,-0.22225 -0.719666,-0.28575 -0.719666,-0.878417 0,-0.306917 0.15875,-0.5715 0.1905,-0.3175 0.53975,-0.391583 0.137583,-0.03175 0.275166,-0.03175 0.211667,0 0.5715,0.105833 0.370417,0.105833 0.5715,0.105833 0.116417,0 0.232834,-0.03175 0.338666,-0.07408 0.296333,-0.243416 -0.02117,-0.08467 -0.740833,-0.179917 -0.899584,-0.105833 -1.386417,-0.338667 -0.79375,-0.370416 -0.973667,-1.164166 -0.0635,-0.243417 -0.0635,-0.47625 0,-0.9525 0.814917,-1.55575 0.740833,-0.550334 1.725083,-0.550334 0.66675,0 1.143,0.232834 0.635,0.296333 0.635,0.889 0,0.370416 -0.243416,0.645583 -0.243417,0.275167 -0.592667,0.275167 -0.15875,0 -0.529167,-0.07408 -0.370416,-0.08467 -0.550333,-0.08467 -0.243417,0 -0.359833,0.08467 -0.07408,0.05292 -0.05292,0.148167 0.02117,0.09525 0.751417,0.179917 0.899583,0.116416 1.386416,0.338666 0.79375,0.381 0.973667,1.164167 0.05292,0.22225 0.05292,0.4445 0,0.751417 -0.53975,1.322917 -0.529167,0.5715 -1.42875,0.783166 z"
         style="font-style:normal;font-variant:normal;font-weight:normal;font-stretch:normal;fill:#ffffff;fill-opacity:1;stroke-width:0.26458332"
         id="path6239"
         inkscape:connector-curvature="0" />
      <path
         d="m 100.19772,96.096255 q 0.20108,0.402167 0.45508,1.121834 0.0847,0.211666 0.0847,0.433916 0,0.709084 -0.6985,0.9525 -0.169338,0.0635 -0.338671,0.0635 -0.73025,0 -0.994833,-0.783166 l -2.116667,-6.1595 q -0.07408,-0.211667 -0.07408,-0.423333 0,-0.73025 0.677333,-0.963084 0.169333,-0.0635 0.34925,-0.0635 0.719667,0 0.98425,0.783167 l 0.9525,2.772833 0.772578,-1.524 q 0.35984,-0.709083 0.97367,-0.709083 0.39158,0 0.66675,0.296333 0.28575,0.296333 0.28575,0.687917 0,0.264583 -0.16933,0.550333 l -0.75142,1.354667 2.14842,1.27 q 0.508,0.296333 0.508,0.878416 0,0.6985 -0.65617,0.931334 -0.14817,0.04233 -0.29633,0.04233 -0.32809,0 -0.77259,-0.275167 z"
         style="font-style:normal;font-variant:normal;font-weight:normal;font-stretch:normal;fill:#ffffff;fill-opacity:1;stroke-width:0.26458332"
         id="path6241"
         inkscape:connector-curvature="0" />
      <path
         d="m 107.6272,92.878922 -1.05833,6.76275 q -0.127,0.814918 -0.762,0.963088 -0.15875,0.0423 -0.30692,0.0423 -0.34925,0 -0.61383,-0.20108 -0.254,-0.1905 -0.3175,-0.497421 -0.0318,-0.116417 -0.0318,-0.296334 0,-0.423333 0.13758,-1.195916 0.0741,-0.359834 0.13759,-0.719667 l -2.51884,-3.630083 q -0.22225,-0.3175 -0.22225,-0.635 0,-0.338667 0.254,-0.613834 0.22225,-0.254 0.51859,-0.3175 0.13758,-0.03175 0.26458,-0.03175 0.55033,0 0.87842,0.497417 l 1.28058,1.9685 0.34925,-2.3495 q 0.0635,-0.402167 0.33867,-0.66675 0.28575,-0.275167 0.67733,-0.275167 0.32808,0 0.59267,0.169334 0.30691,0.201083 0.381,0.529166 0.0635,0.254 0.0212,0.497417 z"
         style="font-style:normal;font-variant:normal;font-weight:normal;font-stretch:normal;fill:#ffffff;fill-opacity:1;stroke-width:0.26458332"
         id="path6243"
         inkscape:connector-curvature="0" />
      <path
         d="m 107.64835,95.080255 q 0,-0.137583 0.0318,-0.275166 l 1.05833,-3.937 q 0.1905,-0.719667 0.94192,-0.719667 0.43392,0 0.74083,0.264584 0.33867,0.296333 0.33867,0.719666 0,0.137584 -0.0423,0.264584 l -1.04774,3.936999 q -0.20109,0.73025 -0.9525,0.73025 -0.43392,0 -0.75142,-0.275166 -0.3175,-0.28575 -0.3175,-0.709084 z m -0.62442,2.084917 q 0,-0.4445 0.3175,-0.762 0.3175,-0.328083 0.77259,-0.328083 0.4445,0 0.762,0.3175 0.32808,0.3175 0.32808,0.772583 0,0.455083 -0.3175,0.772583 -0.3175,0.3175 -0.77258,0.3175 -0.4445,0 -0.77259,-0.3175 -0.3175,-0.3175 -0.3175,-0.772583 z"
         style="font-style:normal;font-variant:normal;font-weight:normal;font-stretch:normal;fill:#ffffff;fill-opacity:1;stroke-width:0.26458332"
         id="path6245"
         inkscape:connector-curvature="0" />
    </g>
    <g
       id="g4712"
       transform="matrix(0.06109896,0,0,0.06109896,-87.525318,-44.539905)">
      <g
         id="g4644">
        <path
           id="path4642"
           d="m 2246.8,2593.9 c -173.6,0 -282.6,-106.1 -282.6,-106.1 l 32.9,-29.2 C 1954.5,2441.5 1896,2394 1896,2394 c 71.2,-57.7 72.6,-130.3 72.6,-130.3 -67.7,-109.7 -110.4,-325.1 -47,-359.2 63.4,-34.1 220.9,122 220.9,122 0,0 34.9,-15.5 104.3,-15.5 69.4,0 104.3,15.5 104.3,15.5 0,0 157.6,-156.1 220.9,-122 63.4,34.1 20.7,249.5 -47,359.2 0,0 1.4,72.6 72.6,130.3 0,0 -58.5,47.5 -101.1,64.6 l 32.9,29.2 c 0,0 -109,106.1 -282.6,106.1 z"
           inkscape:connector-curvature="0"
           style="fill:#fbb03b" />
      </g>
      <g
         id="g4648"
         style="opacity:0.1">
        <path
           id="path4646"
           d="m 2525.1,2263.7 c 67.7,-109.7 110.4,-325.1 47,-359.2 -63.4,-34.1 -220.9,122 -220.9,122 0,0 -34.9,-15.5 -104.3,-15.5 -69.4,0 -104.3,15.5 -104.3,15.5 0,0 -157.6,-156.1 -220.9,-122 -63.4,34.1 -20.7,249.5 47,359.2 0,0 -1.4,72.6 -72.6,130.3 0,0 58.5,47.5 101.1,64.6 l -32.9,29.2 c 0,0 109,106.1 282.6,106.1 173.6,0 282.6,-106.1 282.6,-106.1 l -32.9,-29.2 c 42.6,-17.1 101.1,-64.6 101.1,-64.6 -71.2,-57.7 -72.6,-130.3 -72.6,-130.3 z m -278.3,311.4 c -81.3,0 -264.1,-51.8 -251.4,-255.1 12.3,-197.2 133.1,-284.7 251.4,-284.7 118.3,0 239.1,87.4 251.4,284.7 12.7,203.3 -170,255.1 -251.4,255.1 z"
           inkscape:connector-curvature="0" />
      </g>
      <g
         id="g4652">
        <path
           id="path4650"
           d="m 2380,2336 c -44.4,-9.9 -93.7,-32 -93.7,-103.5 0,-71.5 -2.5,-135.6 -39.5,-135.6 -37,0 -39.5,64.1 -39.5,135.6 0,71.5 -49.3,93.7 -93.7,103.5 -44.4,9.9 -81.3,41.9 -60.8,96.1 20.5,54.2 100.5,120.8 194,120.8 93.5,0 173.5,-66.5 194,-120.8 20.6,-54.2 -16.4,-86.3 -60.8,-96.1 z"
           inkscape:connector-curvature="0"
           style="fill:#ffffff" />
      </g>
      <g
         id="g4656">
        <path
           id="path4654"
           d="m 2092.1,2051 c -46,-58.2 -123.7,-120.9 -146.3,-104.5 -24,17.4 -15.8,147.2 41.4,241.2 20.4,-54.9 55.8,-104.7 104.9,-136.7 z"
           inkscape:connector-curvature="0"
           style="fill:#ffffff" />
      </g>
      <g
         id="g4660">
        <path
           id="path4658"
           d="m 2547.9,1946.5 c -22.6,-16.5 -100.3,46.3 -146.3,104.5 49,32 84.4,81.8 104.9,136.7 57.3,-94 65.4,-223.7 41.4,-241.2 z"
           inkscape:connector-curvature="0"
           style="fill:#ffffff" />
      </g>
      <g
         id="g4664">
        <path
           id="path4662"
           d="m 2246.8,2407.9 c 21.4,0 53.8,-32.8 53.8,-52.7 0,-16.7 -22.6,-22.9 -53.8,-22.9 -31.2,0 -53.8,6.2 -53.8,22.9 0,19.9 32.5,52.7 53.8,52.7 z"
           inkscape:connector-curvature="0"
           style="fill:#5e3d1d" />
      </g>
      <g
         id="g4670">
        <g
           id="g4668">
          <path
             id="path4666"
             d="m 2246.8,2430.1 c -3.3,0 -6,-2.7 -6,-6 v -54 c 0,-3.3 2.7,-6 6,-6 3.3,0 6,2.7 6,6 v 54 c 0,3.3 -2.7,6 -6,6 z"
             inkscape:connector-curvature="0"
             style="fill:#5e3d1d" />
        </g>
      </g>
      <g
         id="g4676">
        <g
           id="g4674">
          <path
             id="path4672"
             d="M 2303.7,2430.1 H 2190 c -3.3,0 -6,-2.7 -6,-6 0,-3.3 2.7,-6 6,-6 h 113.7 c 3.3,0 6,2.7 6,6 0,3.3 -2.7,6 -6,6 z"
             inkscape:connector-curvature="0"
             style="fill:#5e3d1d" />
        </g>
      </g>
      <g
         id="g4680"
         style="opacity:0.1">
        <path
           id="path4678"
           d="m 1987.1,2187.7 c 4,-10.7 8.5,-21.1 13.6,-31.3 -41,-70.9 -80.5,-177.1 -55,-209.9 -24,17.5 -15.8,147.2 41.4,241.2 z"
           inkscape:connector-curvature="0" />
      </g>
      <g
         id="g4684"
         style="opacity:0.1">
        <path
           id="path4682"
           d="m 2506.5,2187.7 c -4,-10.7 -8.5,-21.1 -13.6,-31.3 41,-70.9 80.5,-177.1 55,-209.9 24,17.5 15.9,147.2 -41.4,241.2 z"
           inkscape:connector-curvature="0" />
      </g>
      <g
         id="g4688">
        <path
           id="path4686"
           d="m 2246.8,2599.9 c -90.9,0 -164,-29.2 -209.3,-53.8 -49.1,-26.6 -76.4,-52.9 -77.5,-54 -1.2,-1.2 -1.9,-2.8 -1.8,-4.4 0,-1.7 0.8,-3.2 2,-4.3 l 25.9,-23 c -41.6,-19.4 -91.6,-59.8 -93.9,-61.7 -1.4,-1.1 -2.2,-2.9 -2.2,-4.7 0,-1.8 0.8,-3.5 2.2,-4.7 62.4,-50.5 69.5,-113.1 70.3,-124.1 -26.4,-43.3 -49.7,-103.4 -64.1,-165.4 -14.9,-64.4 -17.9,-122.2 -8.2,-158.5 5.6,-20.8 15.2,-35 28.5,-42.1 6.9,-3.7 15,-5.6 24.1,-5.6 68.2,0 181.4,106.7 201.1,125.8 11,-4 45.2,-14.5 102.9,-14.5 57.7,0 91.9,10.5 102.9,14.5 19.7,-19.1 133,-125.8 201.1,-125.8 9.1,0 17.2,1.9 24.1,5.6 13.3,7.2 22.9,21.4 28.5,42.1 9.7,36.3 6.8,94.1 -8.2,158.5 -14.4,61.9 -37.7,122.1 -64.1,165.4 0.3,4.9 2,20.4 9.3,40.4 8.2,22.3 25.4,54.9 61,83.7 1.4,1.1 2.2,2.8 2.2,4.7 0,1.8 -0.8,3.5 -2.2,4.7 -2.3,1.8 -52.3,42.3 -93.9,61.7 l 25.9,23 c 1.2,1.1 2,2.7 2,4.3 0,1.7 -0.6,3.3 -1.8,4.4 -1.1,1.1 -28.4,27.4 -77.5,54 -45.3,24.5 -118.3,53.8 -209.3,53.8 z m -273.6,-112.1 c 9.8,8.5 34.2,28.3 70.5,47.9 44,23.8 114.9,52.1 203.2,52.1 88.3,0 159.2,-28.3 203.2,-52.1 36.3,-19.6 60.7,-39.4 70.5,-47.9 l -27.9,-24.8 c -1.6,-1.4 -2.3,-3.5 -1.9,-5.5 0.4,-2 1.8,-3.8 3.7,-4.5 33.7,-13.5 78.2,-46.9 93.8,-59.1 -34,-29.4 -50.9,-62 -59.1,-84.6 -9.5,-26 -9.9,-44.7 -10,-45.5 0,-1.2 0.3,-2.3 0.9,-3.3 26.1,-42.4 49.3,-101.9 63.6,-163.4 14.5,-62.5 17.5,-118.2 8.3,-152.7 -4.7,-17.5 -12.3,-29.1 -22.6,-34.7 -5.1,-2.8 -11.3,-4.2 -18.4,-4.2 -68.4,0 -194.2,123.9 -195.5,125.1 -1.8,1.7 -4.4,2.2 -6.7,1.2 -0.3,-0.1 -34.8,-15 -101.9,-15 -67.1,0 -101.6,14.8 -101.9,15 -2.3,1 -4.9,0.5 -6.6,-1.2 -1.3,-1.3 -127.1,-125.1 -195.5,-125.1 -7.1,0 -13.3,1.4 -18.4,4.2 -10.3,5.6 -17.9,17.2 -22.6,34.7 -9.2,34.5 -6.2,90.1 8.3,152.7 14.3,61.5 37.4,121 63.6,163.4 0.6,1 0.9,2.1 0.9,3.3 0,0.8 -0.5,19.5 -10,45.5 -8.2,22.6 -25.1,55.1 -59.1,84.6 15.6,12.2 60.2,45.7 93.8,59.1 1.9,0.8 3.3,2.5 3.7,4.5 0.4,2 -0.4,4.1 -1.9,5.5 z"
           inkscape:connector-curvature="0"
           style="fill:#5e3d1d" />
      </g>
      <g
         id="g4702">
        <g
           id="g4694">
          <g
             id="g4692">
            <path
               id="path4690"
               d="m 1982.9,2205.6 c -0.6,0 -1.3,-0.1 -1.9,-0.3 -3.1,-1 -4.9,-4.4 -3.8,-7.6 22.8,-68.9 65.5,-124.7 120.2,-157.1 2.9,-1.7 6.5,-0.7 8.2,2.1 1.7,2.9 0.7,6.5 -2.1,8.2 -52.2,30.9 -93,84.4 -114.9,150.6 -0.8,2.5 -3.2,4.1 -5.7,4.1 z"
               inkscape:connector-curvature="0"
               style="fill:#5e3d1d" />
          </g>
        </g>
        <g
           id="g4700">
          <g
             id="g4698">
            <path
               id="path4696"
               d="m 2510.7,2205.6 c -2.5,0 -4.9,-1.6 -5.7,-4.1 -21.9,-66.2 -62.7,-119.6 -114.9,-150.6 -2.9,-1.7 -3.8,-5.4 -2.1,-8.2 1.7,-2.8 5.4,-3.8 8.2,-2.1 54.7,32.4 97.4,88.2 120.2,157.1 1,3.1 -0.7,6.5 -3.8,7.6 -0.6,0.2 -1.2,0.3 -1.9,0.3 z"
               inkscape:connector-curvature="0"
               style="fill:#5e3d1d" />
          </g>
        </g>
      </g>
      <g
         id="g4706">
        <path
           id="path4704"
           d="M 2161.6,2255.1 H 2094 c -3.3,0 -6,-2.7 -6,-6 0,-3.3 2.7,-6 6,-6 h 67.6 c 3.3,0 6,2.7 6,6 0,3.3 -2.6,6 -6,6 z"
           inkscape:connector-curvature="0"
           style="fill:#5e3d1d" />
      </g>
      <g
         id="g4710">
        <path
           id="path4708"
           d="M 2399.6,2255.1 H 2332 c -3.3,0 -6,-2.7 -6,-6 0,-3.3 2.7,-6 6,-6 h 67.6 c 3.3,0 6,2.7 6,6 0,3.3 -2.7,6 -6,6 z"
           inkscape:connector-curvature="0"
           style="fill:#5e3d1d" />
      </g>
    </g>
  </g>
</svg>
